<svg width="539" height="167" viewBox="0 0 539 167" fill="none" xmlns="http://www.w3.org/2000/svg">
<g clip-path="url(#clip0_415_386)">
<path d="M55.5973 156.684L49.0345 147.406H53.2988L59.6191 156.761V147.406H63.4777V156.765L69.798 147.406H74.0755L67.4995 156.684L74.4493 166.73H70.0114L63.4777 156.937V166.73H59.6191V156.937L53.0841 166.73H48.6475L55.5973 156.684Z" fill="white"/>
<path d="M86.2148 147.406H89.941V156.738L89.8906 159.237L89.7541 162.079H89.8349L98.8513 147.406H103.804V166.73H100.119V157.451C100.119 156.205 100.197 154.366 100.361 151.926H100.251L91.195 166.73H86.2148V147.406Z" fill="white"/>
<path d="M165.482 157.044C165.482 160.247 164.68 162.706 163.079 164.425C161.473 166.142 159.175 167 156.183 167C153.193 167 150.894 166.142 149.289 164.425C147.684 162.706 146.886 160.238 146.886 157.022C146.886 153.806 147.688 151.347 149.298 149.652C150.903 147.955 153.21 147.107 156.211 147.107C159.212 147.107 161.511 147.96 163.097 149.669C164.689 151.379 165.482 153.837 165.482 157.044ZM151.227 157.044C151.227 159.205 151.642 160.834 152.468 161.926C153.297 163.017 154.537 163.563 156.183 163.563C159.489 163.563 161.141 161.393 161.141 157.044C161.141 152.692 159.5 150.517 156.211 150.517C154.561 150.517 153.32 151.064 152.481 152.164C151.646 153.26 151.227 154.889 151.227 157.044Z" fill="white"/>
<path d="M178.84 147.406H182.566V156.737L182.516 159.237L182.379 162.079H182.461L191.476 147.406H196.429V166.73H192.745V157.451C192.745 156.205 192.822 154.366 192.986 151.925H192.876L183.82 166.73H178.84V147.406ZM194.108 141.127C193.934 142.777 193.31 143.977 192.224 144.731C191.134 145.484 189.57 145.863 187.522 145.863C185.411 145.863 183.852 145.502 182.839 144.776C181.828 144.053 181.262 142.835 181.138 141.127H184.782C184.846 142.038 185.074 142.674 185.47 143.038C185.868 143.404 186.578 143.589 187.6 143.589C188.499 143.589 189.169 143.391 189.611 142.985C190.054 142.583 190.323 141.965 190.419 141.127H194.108Z" fill="white"/>
<path d="M252.524 166.73H247.818L240.736 156.937V166.73H236.595V147.406H240.736V156.765L247.74 147.406H252.15L245.027 156.684L252.524 166.73Z" fill="white"/>
<path d="M264.29 147.406H270.369C273.142 147.406 275.153 147.793 276.402 148.574C277.657 149.354 278.281 150.599 278.281 152.299C278.281 153.454 278.008 154.401 277.461 155.142C276.913 155.885 276.183 156.327 275.276 156.477V156.612C276.512 156.882 277.405 157.397 277.953 158.141C278.5 158.889 278.773 159.887 278.773 161.127C278.773 162.891 278.131 164.262 276.844 165.25C275.559 166.238 273.808 166.73 271.6 166.73H264.29V147.406ZM268.431 155.065H270.84C271.961 155.065 272.772 154.893 273.279 154.551C273.781 154.203 274.032 153.634 274.032 152.841C274.032 152.096 273.757 151.569 273.21 151.244C272.664 150.924 271.797 150.761 270.61 150.761H268.431V155.065ZM268.431 158.316V163.346H271.131C272.271 163.346 273.114 163.129 273.658 162.701C274.2 162.268 274.473 161.61 274.473 160.717C274.473 159.115 273.316 158.316 270.999 158.316H268.431Z" fill="white"/>
<path d="M303.943 166.73L302.528 162.128H295.406L293.992 166.73H289.527L296.423 147.323H301.484L308.407 166.73H303.943ZM301.54 158.691C300.23 154.523 299.492 152.168 299.327 151.619C299.163 151.072 299.045 150.644 298.976 150.323C298.68 151.452 297.836 154.244 296.449 158.691H301.54Z" fill="white"/>
<path d="M324.317 156.499H325.681C326.958 156.499 327.911 156.251 328.541 155.75C329.174 155.253 329.488 154.528 329.488 153.576C329.488 152.615 329.225 151.907 328.696 151.447C328.167 150.992 327.337 150.761 326.205 150.761H324.317V156.499ZM333.671 153.432C333.671 155.512 333.014 157.103 331.701 158.205C330.387 159.305 328.518 159.856 326.096 159.856H324.317V166.73H320.178V147.406H326.416C328.787 147.406 330.587 147.911 331.824 148.916C333.055 149.926 333.671 151.434 333.671 153.432Z" fill="white"/>
<path d="M354.206 166.73H350.065V150.815H344.762V147.406H359.51V150.815H354.206V166.73Z" fill="white"/>
<path d="M382.854 166.73L381.44 162.128H374.317L372.904 166.73H368.438L375.334 147.323H380.396L387.318 166.73H382.854ZM380.451 158.691C379.142 154.523 378.403 152.168 378.238 151.619C378.075 151.072 377.956 150.644 377.888 150.323C377.591 151.452 376.747 154.244 375.362 158.691H380.451Z" fill="white"/>
<path d="M414.545 166.73H410.417V150.815H405.634L405.419 152.588C404.868 157.09 404.379 160.248 403.96 162.061C403.536 163.874 402.925 165.15 402.127 165.891C401.333 166.63 400.23 167 398.821 167C398.073 167 397.416 166.9 396.846 166.706V163.351C397.361 163.527 397.849 163.617 398.3 163.617C398.774 163.617 399.148 163.405 399.423 162.976C399.701 162.547 399.961 161.754 400.207 160.595C400.449 159.436 400.777 157.536 401.178 154.898C401.583 152.255 401.931 149.76 402.213 147.406H414.545V166.73Z" fill="white"/>
<path d="M133.505 166.73H129.378V150.815H124.595L124.38 152.588C123.828 157.09 123.34 160.248 122.921 162.061C122.497 163.874 121.886 165.15 121.088 165.891C120.294 166.63 119.191 167 117.782 167C117.033 167 116.377 166.9 115.807 166.706V163.351C116.322 163.527 116.81 163.617 117.261 163.617C117.735 163.617 118.109 163.405 118.384 162.976C118.662 162.547 118.922 161.754 119.167 160.595C119.409 159.436 119.737 157.536 120.139 154.898C120.544 152.255 120.891 149.76 121.174 147.406H133.505V166.73Z" fill="white"/>
<path fill-rule="evenodd" clip-rule="evenodd" d="M50.7873 79.2235C49.559 79.179 48.3307 79.097 47.1213 78.9918C43.0931 78.6406 39.0675 77.9729 35.1519 76.971C26.5935 74.7808 18.4982 70.9532 12.1593 64.9363C12.1918 65.5647 12.2386 66.1914 12.3017 66.8153C18.2756 72.6896 26.1275 76.355 34.2516 78.5069C39.4866 79.8939 45.2478 80.7683 50.7873 80.9903V79.2235ZM12.2657 60.0122C18.4288 67.0382 26.9855 71.2919 36.0315 73.6077C39.7596 74.5615 43.5941 75.1962 47.4304 75.5305C48.5371 75.6268 49.6617 75.7034 50.7873 75.7471V66.03C45.519 65.4675 40.1093 64.2526 35.197 62.5866C27.7289 60.0541 20.7538 56.2434 15.108 50.8629C13.6418 53.8554 12.6379 56.9209 12.2657 60.0122ZM16.8499 47.6833C22.2417 53.0736 29.0546 56.8308 36.3361 59.3009C40.8843 60.843 45.8975 61.9831 50.7873 62.5349V55.3288C50.2772 55.2548 49.7717 55.1711 49.2796 55.0855C46.349 54.5774 43.4382 53.8304 40.6203 52.8873C33.4 50.4725 26.6998 46.7206 21.2089 41.5309C19.5931 43.5241 18.1197 45.5805 16.8499 47.6833ZM23.479 38.8701C28.6274 43.7862 34.9474 47.3223 41.7458 49.5963C44.3944 50.4823 47.1321 51.1856 49.8861 51.6634C50.1808 51.7151 50.4827 51.7659 50.7873 51.8141V43.2023C43.194 41.2002 35.7431 37.6097 29.6034 32.6839C27.4802 34.6431 25.4093 36.713 23.479 38.8701ZM32.2438 30.3243C37.6698 34.5736 44.1619 37.7309 50.7873 39.5984V37.7363C49.0571 37.2843 47.3268 36.6773 45.7542 36.0417C41.4403 34.2973 37.3778 31.9128 33.674 29.1058C33.1973 29.506 32.7197 29.9125 32.2438 30.3243ZM36.4595 26.8319C39.7398 29.2431 43.3094 31.2995 47.0835 32.8265C48.2397 33.2936 49.5058 33.7517 50.7873 34.1288V26.7516C48.2505 25.6543 45.0748 24.007 42.7344 22.1191C40.7464 23.5337 38.6241 25.1124 36.4595 26.8319ZM45.7371 20.0332C47.252 21.1091 49.1255 22.1235 50.7873 22.9186V16.7234C49.0823 17.802 47.3971 18.9056 45.7371 20.0332ZM56.4305 0.0864652C56.4918 0.0525923 56.5305 0.0285246 56.5891 0C81.1704 13.3798 112.677 36.4562 112.677 62.6445C112.677 72.777 110.021 82.4593 102.216 89.4505C92.0882 98.5222 76.1401 100.176 62.3899 100.448V127.11H50.7873V100.448C37.0372 100.176 21.0882 98.5222 10.9617 89.4505C3.15659 82.4593 0.499023 72.777 0.499023 62.6445C0.499023 36.5124 31.8725 13.4779 56.4305 0.0864652ZM50.7873 88.9736V84.4676C44.945 84.2448 38.8738 83.3284 33.3424 81.863C26.1546 79.9589 19.2146 76.938 13.4102 72.4151C14.4096 75.6134 16.0821 78.5532 18.7505 80.9439C26.1113 87.5376 39.9408 88.7534 50.7873 88.9736ZM62.3899 16.7234V88.9736C73.2365 88.7534 87.0659 87.5376 94.4267 80.9439C99.6842 76.2347 101.075 69.3932 101.075 62.6445C101.075 45.8694 81.1407 29.4775 68.5324 20.7802C66.52 19.3923 64.4708 18.0391 62.3899 16.7234Z" fill="white"/>
<path fill-rule="evenodd" clip-rule="evenodd" d="M452.384 52.677C452.384 32.8007 467.165 16.4204 487.664 16.4516C505.93 16.4801 519.158 30.6016 524.488 46.7652C525.084 48.5739 525.541 50.5403 525.894 52.5878C525.556 54.6978 525.102 56.7248 524.488 58.5878C519.159 74.7514 505.93 88.8729 487.664 88.9014C467.165 88.9326 452.384 72.5524 452.384 52.677ZM526.898 79.1728V98.4135H538.501C538.501 67.9225 538.501 37.4315 538.501 6.94044H526.898V7.33621V26.1803C517.906 13.6731 504.275 4.99987 487.682 4.97491C460.76 4.93391 440.781 26.4557 440.781 52.677C440.781 78.8982 460.76 100.419 487.682 100.378C504.275 100.353 517.906 91.6799 526.898 79.1728Z" fill="white"/>
<path fill-rule="evenodd" clip-rule="evenodd" d="M415.818 52.677C415.818 32.8007 401.037 16.4204 380.538 16.4516C362.273 16.4801 349.044 30.6016 343.714 46.7653C343.119 48.573 342.662 50.5376 342.31 52.5825C342.647 54.6978 343.102 56.7275 343.714 58.5878C349.044 74.7515 362.273 88.8729 380.538 88.9015C401.037 88.9327 415.818 72.5524 415.818 52.677ZM341.305 79.1728V127.11H329.701C329.701 87.0536 329.701 46.997 329.701 6.94044H341.305V26.1803C350.297 13.6731 363.927 4.99987 380.521 4.97491C407.442 4.93391 427.422 26.4557 427.422 52.677C427.422 78.8982 407.442 100.419 380.521 100.378C363.927 100.353 350.297 91.6799 341.305 79.1728Z" fill="white"/>
<path fill-rule="evenodd" clip-rule="evenodd" d="M266.303 4.97485C239.778 4.97485 218.077 26.4405 218.077 52.6769C218.077 78.9133 239.778 100.378 266.303 100.378C292.827 100.378 314.527 78.9133 314.527 52.6769C314.527 26.4405 292.827 4.97485 266.303 4.97485ZM266.303 16.4516C286.445 16.4516 302.925 32.7525 302.925 52.6769C302.925 72.6005 286.445 88.9014 266.303 88.9014C246.16 88.9014 229.68 72.6005 229.68 52.6769C229.68 32.7525 246.16 16.4516 266.303 16.4516Z" fill="white"/>
<path fill-rule="evenodd" clip-rule="evenodd" d="M172.877 6.94043C189.703 35.3777 202.716 67.1719 212.796 98.4135H200.605C191.626 71.1565 180.335 43.5259 166.114 18.3592C151.894 43.5259 140.602 71.1565 131.623 98.4135H119.432C129.512 67.1719 142.525 35.3777 159.351 6.94043H172.877Z" fill="white"/>
</g>
<defs>
<clipPath id="clip0_415_386">
<rect width="539" height="167" fill="white"/>
</clipPath>
</defs>
</svg>
