<svg width="52" height="52" viewBox="0 0 52 52" fill="none" xmlns="http://www.w3.org/2000/svg">
<path d="M33.6572 4.10035C33.5699 4.03948 33.4708 3.99736 33.3662 3.9767C33.2616 3.95604 33.1538 3.95729 33.0497 3.98037C32.9457 4.00344 32.8476 4.04784 32.7618 4.11072C32.676 4.1736 32.6043 4.25357 32.5515 4.34552C32.5464 4.35466 32.5399 4.36299 32.5343 4.37132C32.2882 4.72049 31.8019 4.80529 31.4503 4.56134C31.103 4.32013 30.6248 4.40341 30.3817 4.74822L29.2636 6.33391C29.1832 6.44803 29.1357 6.58187 29.1265 6.72089C29.1173 6.8599 29.1466 6.99876 29.2114 7.12237C29.2761 7.24598 29.3737 7.34961 29.4936 7.42198C29.6135 7.49435 29.7511 7.5327 29.8914 7.53285C30.0149 7.53298 30.1365 7.5035 30.2461 7.44692C30.3556 7.39033 30.4497 7.30832 30.5204 7.20785L31.2736 6.13952C31.9809 6.33513 32.7493 6.18441 33.3287 5.73124L34.4603 6.51804C34.5427 6.57772 34.6362 6.62049 34.7355 6.64384C34.8347 6.66719 34.9377 6.67066 35.0383 6.65404C35.1389 6.63742 35.2352 6.60105 35.3215 6.54705C35.4078 6.49305 35.4824 6.42251 35.5409 6.33955C35.5994 6.2566 35.6406 6.16289 35.6622 6.06391C35.6838 5.96494 35.6853 5.86268 35.6666 5.76312C35.6479 5.66357 35.6094 5.56871 35.5534 5.48409C35.4973 5.39948 35.4249 5.32682 35.3402 5.27035L33.6572 4.10035ZM42.1415 13.6952L41.3883 14.7632C41.2716 14.9287 41.2259 15.1334 41.2612 15.3323C41.2965 15.5313 41.4099 15.7081 41.5765 15.8241C41.7053 15.9138 41.8588 15.9618 42.0161 15.9617C42.1395 15.9619 42.2612 15.9325 42.3707 15.8759C42.4802 15.8193 42.5743 15.7372 42.645 15.6367L43.7635 14.0515C43.8802 13.886 43.9259 13.6813 43.8906 13.4824C43.8553 13.2834 43.7419 13.1065 43.5753 12.9906C43.2236 12.7462 43.1377 12.2634 43.3843 11.9139C43.3902 11.9056 43.3958 11.8973 43.4027 11.8897C43.4714 11.8088 43.5225 11.7145 43.5525 11.613C43.5826 11.5114 43.591 11.4048 43.5772 11.2998C43.5636 11.1948 43.5281 11.0938 43.4729 11.0032C43.4177 10.9126 43.3441 10.8344 43.2568 10.7737L41.5737 9.6037C41.407 9.48787 41.2008 9.44252 41.0004 9.47764C40.8 9.51277 40.6219 9.62548 40.5052 9.79099C40.2619 10.1354 40.3467 10.6106 40.6934 10.8519L41.8251 11.6382C41.5941 12.334 41.7143 13.1021 42.1415 13.6952ZM38.0702 30.8081C38.4346 30.8081 38.773 30.9529 39.0232 31.2164C39.163 31.3631 39.3557 31.4487 39.559 31.4544C39.7624 31.4601 39.9597 31.3855 40.1076 31.2468C40.1809 31.1782 40.2398 31.0959 40.2811 31.0046C40.3223 30.9133 40.345 30.8149 40.3479 30.7149C40.3508 30.6149 40.3338 30.5153 40.298 30.4219C40.2621 30.3284 40.208 30.2429 40.1388 30.1702C39.8725 29.891 39.5517 29.6686 39.1961 29.5164C38.8405 29.3641 38.4575 29.2852 38.0702 29.2845C36.5014 29.2845 35.2254 30.5517 35.2254 32.1093C35.2254 33.6664 36.5014 34.9336 38.0702 34.9336C38.8303 34.9336 39.5447 34.6401 40.0817 34.1064C40.153 34.0357 40.2095 33.9517 40.2481 33.8593C40.2866 33.7669 40.3065 33.6679 40.3065 33.5679C40.3065 33.4679 40.2866 33.3688 40.2481 33.2764C40.2095 33.184 40.153 33.1001 40.0817 33.0293C40.0105 32.9586 39.9259 32.9025 39.8329 32.8642C39.7398 32.8259 39.64 32.8061 39.5393 32.8061C39.4385 32.8061 39.3387 32.8259 39.2457 32.8642C39.1526 32.9025 39.068 32.9586 38.9968 33.0293C38.8754 33.1505 38.731 33.2465 38.5719 33.3119C38.4129 33.3773 38.2423 33.4107 38.0702 33.4102C37.3477 33.4102 36.7598 32.8266 36.7598 32.1093C36.7598 31.3917 37.3477 30.8081 38.0702 30.8081Z" fill="#93BC6D"/>
<path d="M44.9011 26.7436V20.6427C44.9011 18.5714 43.2037 16.8861 41.1175 16.8861H37.046C37.2841 14.8437 36.6125 13.0474 35.1955 12.0623C33.9952 11.228 32.4399 11.0784 30.816 11.6409C29.2813 12.1729 27.8536 13.2909 26.797 14.789C26.3291 15.452 25.9567 16.155 25.6866 16.8861H20.6918L31.4279 1.66327L46.3257 12.0199L44.056 15.2385C43.9959 15.3203 43.9528 15.4132 43.9293 15.5117C43.9058 15.6103 43.9023 15.7125 43.919 15.8124C43.9357 15.9123 43.9724 16.0079 44.0268 16.0935C44.0811 16.1792 44.1522 16.2533 44.2357 16.3114C44.3193 16.3694 44.4137 16.4104 44.5134 16.4318C44.6131 16.4533 44.7161 16.4548 44.8163 16.4362C44.9166 16.4177 45.0121 16.3794 45.0974 16.3238C45.1826 16.2682 45.2558 16.1962 45.3127 16.1121L47.7869 12.6039C48.1597 12.0765 48.0307 11.3462 47.4988 10.9756L32.0162 0.212452C31.8898 0.123882 31.747 0.0610945 31.596 0.0277265C31.445 -0.00564152 31.2888 -0.00892661 31.1365 0.0180616C30.9841 0.0443445 30.8384 0.100326 30.7079 0.182776C30.5774 0.265226 30.4647 0.372514 30.3761 0.498451L26.825 5.53411V2.4976C26.825 1.85289 26.2968 1.32842 25.6474 1.32842H7.24588C6.59652 1.32842 6.06828 1.85289 6.06828 2.4976V6.66755C6.06828 6.86957 6.14911 7.06331 6.29299 7.20616C6.43686 7.34901 6.63201 7.42926 6.83548 7.42926C7.25939 7.42926 7.60268 7.08852 7.60268 6.66755V2.85226H9.82553V16.8857H7.78385C7.72349 16.8857 7.66314 16.8872 7.60279 16.8901V9.71441C7.60279 9.51239 7.52196 9.31865 7.37808 9.1758C7.2342 9.03295 7.03906 8.9527 6.83558 8.9527C6.63211 8.9527 6.43697 9.03295 6.29309 9.1758C6.14921 9.31865 6.06838 9.51239 6.06838 9.71441V17.2947C4.84188 17.9168 4 19.184 4 20.6427V43.5755C4 45.6468 5.69746 47.3323 7.78364 47.3323H13.5121C13.9361 47.3323 14.2793 46.9914 14.2793 46.5705C14.2793 46.3685 14.1985 46.1748 14.0546 46.0319C13.9107 45.8891 13.7156 45.8088 13.5121 45.8088H7.78364C6.54333 45.8088 5.53441 44.8069 5.53441 43.5755V20.6427C5.53441 19.6667 6.16812 18.8352 7.04805 18.5322C7.06758 18.5266 7.08723 18.5203 7.10595 18.5131C7.32529 18.444 7.55405 18.409 7.78415 18.4092H41.1175C42.3578 18.4092 43.3671 19.4113 43.3671 20.6427V26.638H37.8744C34.8359 26.638 32.3638 29.0922 32.3638 32.1093C32.3638 35.126 34.8359 37.5803 37.8744 37.5803H43.3671V43.5755C43.3671 44.807 42.3578 45.8088 41.1175 45.8088H35.2551C35.0517 45.8088 34.8565 45.8891 34.7126 46.0319C34.5688 46.1748 34.4879 46.3685 34.4879 46.5705C34.4879 46.9914 34.8311 47.3323 35.2551 47.3323H41.1175C43.2037 47.3323 44.9015 45.6468 44.9015 43.5755V37.4746C46.6373 37.0656 47.9324 35.5137 47.9324 33.6673V30.5513C47.932 28.7046 46.637 27.1527 44.9011 26.7436ZM28.0539 15.6634C29.8036 13.1823 32.6127 12.127 34.3157 13.3104C35.2967 13.9924 35.7287 15.3305 35.4989 16.8857H27.345C27.5435 16.4578 27.7808 16.0487 28.0539 15.6634ZM25.2907 7.70978L18.819 16.8861H15.0385V2.85185H25.2907V7.70978ZM11.3599 2.85185H13.5041V16.8857H11.36L11.3599 2.85185ZM46.3976 33.6669C46.3976 34.9848 45.3179 36.0568 43.9905 36.0568H37.8744C35.6819 36.0568 33.8982 34.2858 33.8982 32.1089C33.8982 29.9324 35.6819 28.1615 37.8744 28.1615H43.9905C45.3179 28.1615 46.3975 29.2335 46.3975 30.5513L46.3976 33.6669Z" fill="#93BC6D"/>
<path d="M24.4503 33.5946C19.3396 33.5946 15.1815 37.723 15.1815 42.7975C15.1815 47.8716 19.3396 52 24.4503 52C29.5614 52 33.7195 47.8717 33.7195 42.7974C33.7195 37.723 29.5614 33.5946 24.4503 33.5946ZM24.4503 50.4766C20.1856 50.4766 16.7159 47.0318 16.7159 42.7974C16.7159 38.5628 20.1856 35.118 24.4503 35.118C28.7155 35.118 32.1851 38.5628 32.1851 42.7975C32.1851 47.0318 28.7155 50.4766 24.4503 50.4766Z" fill="#93BC6D"/>
<path d="M25.8061 43.6163H21.083C20.8005 43.6163 20.5715 43.389 20.5715 43.1085V42.7638C20.5715 42.4833 20.8005 42.256 21.083 42.256H25.7715C26.2371 42.256 26.6129 42.1853 26.8987 42.044C27.1845 41.8982 27.3942 41.6954 27.5279 41.4356C27.6616 41.1759 27.7285 40.8728 27.7285 40.5265C27.7285 40.2166 27.6616 39.9272 27.5279 39.6583C27.3942 39.3894 27.1868 39.1707 26.9056 39.0021C26.6244 38.8289 26.2579 38.7423 25.8061 38.7423H24.2293C23.9468 38.7423 23.7178 38.9697 23.7178 39.2501V46.8204C23.7178 47.1009 23.4888 47.3282 23.2063 47.3282H22.4936C22.2111 47.3282 21.9821 47.1009 21.9821 46.8204V37.8829C21.9821 37.6025 22.2111 37.3751 22.4936 37.3751H25.8061C26.5806 37.3751 27.2398 37.5096 27.7838 37.7784C28.3278 38.0473 28.745 38.4187 29.0354 38.8927C29.3258 39.3621 29.471 39.9021 29.471 40.5128C29.471 41.1645 29.3235 41.7228 29.0285 42.1876C28.7381 42.6479 28.3185 43.0011 27.77 43.2472C27.226 43.4933 26.5714 43.6163 25.8061 43.6163ZM25.4606 44.3478C25.7431 44.3478 25.9721 44.5751 25.9721 44.8556V45.2003C25.9721 45.4807 25.7431 45.7081 25.4606 45.7081H21.083C20.8005 45.7081 20.5715 45.4807 20.5715 45.2003V44.8556C20.5715 44.5751 20.8005 44.3478 21.083 44.3478H25.4606Z" fill="#93BC6D"/>
</svg>
