<svg width="52" height="52" viewBox="0 0 52 52" fill="none" xmlns="http://www.w3.org/2000/svg">
<path d="M28.4656 32.1963H23.5361C23.3206 32.1963 23.114 32.2819 22.9616 32.4343C22.8092 32.5866 22.7236 32.7933 22.7236 33.0088C22.7236 33.2243 22.8092 33.4309 22.9616 33.5833C23.114 33.7357 23.3206 33.8213 23.5361 33.8213H28.4656C28.6811 33.8213 28.8877 33.7357 29.0401 33.5833C29.1925 33.4309 29.2781 33.2243 29.2781 33.0088C29.2781 32.7933 29.1925 32.5866 29.0401 32.4343C28.8877 32.2819 28.6811 32.1963 28.4656 32.1963Z" fill="#93BC6D"/>
<path d="M44.2654 4.63135H7.73535C5.94785 4.63135 4.48535 5.93135 4.48535 7.53197V33.6457C4.48535 35.2463 5.94785 36.5463 7.73535 36.5463H19.996V37.7488C19.996 38.8457 19.8335 39.9182 19.5329 40.9663H15.186C14.6172 40.9663 14.0729 41.2507 13.7072 41.7463C13.3741 42.1851 13.1872 42.7538 13.1872 43.3551C13.1872 44.6713 14.081 45.7438 15.186 45.7438H36.8147C37.3835 45.7438 37.9197 45.4595 38.2935 44.9638C38.6266 44.5332 38.8135 43.9563 38.8135 43.3551C38.8135 42.0388 37.9197 40.9663 36.8147 40.9663H32.5654C32.2647 39.9345 32.1022 38.8538 32.1022 37.7488V36.5463H44.2654C46.0529 36.5463 47.5154 35.2463 47.5154 33.6457V7.53197C47.5154 5.93135 46.0529 4.63135 44.2654 4.63135ZM36.8147 42.5913C36.9204 42.5913 37.1885 42.8595 37.1885 43.3551C37.1885 43.5988 37.1235 43.8263 37.0016 43.9807C36.9285 44.0782 36.8554 44.1188 36.8147 44.1188H15.186C15.0804 44.1188 14.8122 43.8507 14.8122 43.3551C14.8122 43.1113 14.8772 42.892 14.9991 42.7295C15.0722 42.632 15.1454 42.5913 15.186 42.5913H36.8147ZM30.8754 40.9663H21.2229C21.491 39.9182 21.621 38.8376 21.621 37.7488V36.5626H30.4772V37.7488C30.4772 38.8457 30.6072 39.9263 30.8754 40.9663ZM45.8904 33.6457C45.8904 34.3526 45.1591 34.9213 44.2654 34.9213H7.73535C6.8416 34.9213 6.11035 34.3526 6.11035 33.6457V31.0863H45.8904V33.6457ZM45.8904 29.4613H6.11035V7.53197C6.11035 6.8251 6.8416 6.25635 7.73535 6.25635H44.2654C45.1591 6.25635 45.8904 6.8251 45.8904 7.53197V29.4613Z" fill="#93BC6D"/>
<path d="M25.0664 15.7868C25.0664 16.5587 24.4408 17.1924 23.6608 17.1924C22.8808 17.1924 22.2471 16.5587 22.2471 15.7868C22.2471 15.0068 22.8808 14.373 23.6608 14.373C24.4408 14.373 25.0664 15.0068 25.0664 15.7868Z" fill="#93BC6D"/>
<path d="M34.5724 16.3315C34.353 16.1203 34.0443 15.8278 33.9874 15.6653C33.9305 15.4946 34.0118 15.0721 34.0687 14.739C34.1905 14.0646 34.3449 13.2278 33.8655 12.5696C33.378 11.9034 32.533 11.7896 31.8505 11.7003C31.5174 11.6596 31.103 11.6028 30.9568 11.4971C30.8187 11.3915 30.6318 11.0015 30.4937 10.7171C30.193 10.0915 29.8274 9.31964 29.0312 9.05964C28.2674 8.81589 27.5605 9.19776 26.9349 9.53089C26.6262 9.69339 26.2443 9.90464 26.0493 9.90464C25.8543 9.90464 25.4724 9.69339 25.1637 9.53089C24.538 9.19776 23.8312 8.81589 23.0674 9.05964C22.2712 9.31964 21.9055 10.0915 21.6049 10.7171C21.4668 11.0015 21.2799 11.3915 21.1418 11.4971C20.9955 11.6028 20.5812 11.6596 20.248 11.7003C19.5655 11.7896 18.7205 11.9034 18.233 12.5696C17.7537 13.2278 17.908 14.0646 18.0299 14.739C18.0868 15.0721 18.168 15.4946 18.1112 15.6653C18.0543 15.8278 17.7455 16.1203 17.5262 16.3315C17.0224 16.8109 16.3887 17.404 16.3887 18.249C16.3887 19.094 17.0224 19.6871 17.5262 20.1665C17.7455 20.3778 18.0543 20.6703 18.1112 20.8328C18.168 21.0034 18.0868 21.4259 18.0299 21.759C17.908 22.4334 17.7537 23.2703 18.233 23.9284C18.7205 24.5946 19.5655 24.7084 20.248 24.7978C20.5812 24.8384 20.9955 24.8953 21.1418 25.0009C21.2799 25.1065 21.4668 25.4965 21.6049 25.7809C21.9055 26.4065 22.2712 27.1784 23.0674 27.4384C23.238 27.4953 23.4005 27.5196 23.5712 27.5196C24.1399 27.5196 24.6762 27.2271 25.1637 26.9671C25.4724 26.8046 25.8543 26.5934 26.0493 26.5934C26.2443 26.5934 26.6262 26.8046 26.9349 26.9671C27.5605 27.3003 28.2674 27.6821 29.0312 27.4384C29.8274 27.1784 30.193 26.4065 30.4937 25.7809C30.6318 25.4965 30.8187 25.1065 30.9568 25.0009C31.103 24.8953 31.5174 24.8384 31.8505 24.7978C32.533 24.7084 33.378 24.5946 33.8655 23.9284C34.3449 23.2703 34.1905 22.4334 34.0687 21.759C34.0118 21.4259 33.9305 21.0034 33.9874 20.8328C34.0443 20.6703 34.353 20.3778 34.5724 20.1665C35.0762 19.6871 35.7099 19.094 35.7099 18.249C35.7099 17.404 35.0762 16.8109 34.5724 16.3315ZM33.4593 18.9884C33.0449 19.3784 32.6224 19.7765 32.4437 20.329C32.2649 20.8978 32.3705 21.5071 32.468 22.0515C32.5168 22.3278 32.6143 22.8478 32.5493 22.9696C32.4518 23.0753 31.9237 23.1484 31.6393 23.189C31.0949 23.2621 30.4774 23.3434 29.998 23.6928C29.5268 24.034 29.2587 24.5865 29.023 25.0821C28.9012 25.3421 28.6655 25.8378 28.5355 25.8865C28.4055 25.8946 27.9587 25.6753 27.7068 25.5371C27.2112 25.269 26.6587 24.9684 26.0493 24.9684C25.4399 24.9684 24.8874 25.269 24.3918 25.5371C24.1399 25.6753 23.7174 25.9028 23.563 25.8946C23.433 25.8378 23.1974 25.3421 23.0755 25.0821C22.8399 24.5865 22.5718 24.034 22.1005 23.6928C21.6212 23.3434 21.0037 23.2621 20.4593 23.189C20.1749 23.1484 19.6468 23.0753 19.5493 22.9778C19.4843 22.8478 19.5737 22.3278 19.6305 22.0515C19.728 21.5071 19.8418 20.8978 19.6549 20.329C19.4762 19.7765 19.0537 19.3784 18.6393 18.9884C18.4362 18.7934 18.0137 18.3953 18.0137 18.249C18.0137 18.1028 18.4362 17.7046 18.6393 17.5096C19.0537 17.1196 19.4762 16.7215 19.6549 16.169C19.8418 15.6084 19.728 14.9909 19.6305 14.4465C19.5818 14.1703 19.4843 13.6503 19.5493 13.5284C19.6468 13.4228 20.1749 13.3496 20.4593 13.309C21.0037 13.2359 21.6212 13.1546 22.1005 12.8134C22.5718 12.464 22.8399 11.9115 23.0755 11.4159C23.1974 11.1559 23.433 10.6603 23.563 10.6115H23.5793C23.7337 10.6115 24.148 10.8309 24.3999 10.9609C24.8874 11.229 25.4399 11.5296 26.0493 11.5296C26.6587 11.5296 27.2112 11.229 27.6987 10.9609C27.9587 10.8228 28.3974 10.5871 28.5355 10.6034C28.6655 10.6603 28.9012 11.1559 29.023 11.4159C29.2587 11.9115 29.5268 12.464 29.998 12.8134C30.4774 13.1546 31.0949 13.2359 31.6393 13.309C31.9237 13.3496 32.4518 13.4228 32.5493 13.5284C32.6143 13.6503 32.5168 14.1703 32.468 14.4465C32.3705 14.9909 32.2649 15.6084 32.4437 16.169C32.6224 16.7215 33.0449 17.1196 33.4593 17.5096C33.6624 17.7046 34.0849 18.1028 34.0849 18.249C34.0849 18.3953 33.6624 18.7934 33.4593 18.9884Z" fill="#93BC6D"/>
<path d="M29.9248 20.6378C29.9248 21.4178 29.291 22.0516 28.511 22.0516C27.7391 22.0516 27.1054 21.4178 27.1054 20.6378C27.1054 19.8578 27.7391 19.2322 28.511 19.2322C29.291 19.2322 29.9248 19.8578 29.9248 20.6378ZM22.6269 21.6721C22.7022 21.7478 22.7917 21.8079 22.8903 21.8489C22.9889 21.8899 23.0946 21.911 23.2013 21.911C23.3081 21.911 23.4138 21.8899 23.5124 21.8489C23.611 21.8079 23.7005 21.7478 23.7758 21.6721L29.4722 15.9757C29.5476 15.9002 29.6075 15.8107 29.6483 15.7121C29.6891 15.6136 29.7102 15.5079 29.7102 15.4012C29.7102 15.2946 29.6891 15.1889 29.6483 15.0904C29.6075 14.9918 29.5476 14.9022 29.4722 14.8268C29.3968 14.7514 29.3072 14.6915 29.2087 14.6507C29.1101 14.6099 29.0045 14.5889 28.8978 14.5889C28.7911 14.5889 28.6855 14.6099 28.5869 14.6507C28.4883 14.6915 28.3988 14.7514 28.3233 14.8268L22.6269 20.5232C22.5514 20.5986 22.4915 20.6882 22.4506 20.7867C22.4097 20.8853 22.3887 20.991 22.3887 21.0977C22.3887 21.2044 22.4097 21.3101 22.4506 21.4086C22.4915 21.5072 22.5514 21.5967 22.6269 21.6721Z" fill="#93BC6D"/>
</svg>
