<svg width="52" height="52" viewBox="0 0 52 52" fill="none" xmlns="http://www.w3.org/2000/svg">
<path fill-rule="evenodd" clip-rule="evenodd" d="M25.6957 25.6953C20.8207 25.6953 16.7582 20.6172 16.2504 13.9141C15.7426 8.73438 16.4535 6.80469 16.5551 6.5C18.1801 2.64062 22.0395 0 26.3051 0C29.0473 0 31.4848 1.11719 33.1098 3.04688C34.6332 4.77344 36.1567 8.125 35.2426 13.8125C35.141 14.7266 35.0395 15.6406 34.8363 16.4531C34.7348 16.7578 34.5317 16.9609 34.3285 16.9609C31.9926 17.7734 30.4692 20.2109 30.4692 23.0547V23.5625C30.4692 23.8672 30.3676 24.0703 30.1645 24.1719C28.8442 25.1875 27.2192 25.6953 25.6957 25.6953ZM17.8754 7.10938C17.8754 7.21094 17.1645 8.9375 17.6723 13.8125C17.8754 16.6562 18.891 19.3984 20.4145 21.3281C21.8363 23.2578 23.766 24.2734 25.6957 24.2734C26.9145 24.2734 27.9301 23.9688 29.0473 23.2578V23.0547C29.0473 19.8047 30.8754 16.8594 33.516 15.8438C33.6176 15.1328 33.7192 14.3203 33.8207 13.6094C34.5317 9.44531 33.9223 6.19531 31.9926 3.96094C30.6723 2.33594 28.5395 1.42188 26.3051 1.42188C22.5473 1.42188 19.1957 3.65625 17.8754 7.00781V7.10938Z" fill="#93BC6D"/>
<path fill-rule="evenodd" clip-rule="evenodd" d="M19.0938 14.5236H16.9609C16.5547 14.5236 16.25 14.2189 16.25 13.8127C16.25 13.4064 16.5547 13.1017 16.9609 13.1017H18.3828C18.3828 11.3752 19.1953 9.95328 20.6172 8.83609C21.9375 7.82047 23.6641 7.10953 25.3906 6.50015C28.5391 5.2814 30.4688 4.4689 30.2656 2.13297C30.1641 1.82828 30.4688 1.42203 30.875 1.42203C31.2812 1.32047 31.5859 1.62515 31.6875 2.0314C31.7891 3.6564 31.2812 4.87515 29.9609 5.89078C28.8438 6.70328 27.4219 7.21109 25.8984 7.82047C22.6484 9.03922 19.6016 10.1564 19.8047 13.8127C19.8047 14.0158 19.7031 14.1173 19.6016 14.3205C19.3984 14.422 19.2969 14.5236 19.0938 14.5236Z" fill="#93BC6D"/>
<path fill-rule="evenodd" clip-rule="evenodd" d="M34.5313 14.6252H32.5C32.2969 14.6252 32.0938 14.5236 31.9922 14.4221C31.7891 14.3205 31.7891 14.1174 31.7891 13.9143C31.9922 10.7658 29.4531 6.70333 28.8438 5.78927C28.6406 5.48458 28.6406 5.07833 28.9453 4.77365C29.3516 4.57052 29.7578 4.67208 29.961 4.97677C30.6719 5.89083 33.1094 9.85177 33.211 13.2033H34.5313C34.9375 13.2033 35.2422 13.508 35.2422 13.9143C35.2422 14.3205 34.9375 14.6252 34.5313 14.6252ZM28.4375 52.0002C26.5078 52.0002 24.4766 51.6955 22.4453 51.0861C22.3438 51.0861 22.1406 51.0861 22.0391 51.1877C19.7031 51.3908 17.875 51.4924 16.7578 51.4924H16.4531C13.5078 51.4924 10.3594 48.9533 9.64846 46.1096C9.44533 44.9924 9.24221 43.9768 8.93752 42.8596C8.42971 40.7268 7.9219 38.4924 7.51565 36.258C7.00783 33.6174 7.31252 31.5861 8.32815 30.2658C9.5469 28.7424 11.2735 28.5393 11.4766 28.5393C17.6719 28.2346 19.6016 26.3049 19.9063 25.7971V22.7502C19.9063 22.344 20.3125 22.0393 20.6172 22.0393C21.0235 22.0393 21.3281 22.344 21.3281 22.7502V26.3049C21.125 26.6096 19.5 29.5549 11.5781 29.9611C11.4766 29.9611 10.2578 30.0627 9.44533 31.0783C8.63283 32.1955 8.42971 33.8205 8.93752 36.0549C9.34377 38.1877 9.85158 40.4221 10.3594 42.5549C10.5625 43.6721 10.8672 44.6877 11.0703 45.8049C11.5781 48.0393 14.2188 50.1721 16.5547 50.0705H16.6563C17.7735 50.0705 19.6016 49.969 21.836 49.7658C22.0391 49.7658 22.1406 49.6643 22.2422 49.6643H22.4453C29.5547 48.7502 38.086 46.008 38.5938 37.7815V28.7424C38.5938 28.5393 38.6953 28.3361 38.7969 28.2346C39 28.133 39.2031 28.0315 39.4063 28.0315C42.6563 28.3361 44.6875 30.8752 44.7891 34.5315C44.7891 40.6252 42.5547 45.7033 38.3906 48.8518C36.2578 50.3752 33.8203 51.3908 31.0781 51.7971C30.2656 51.8986 29.3516 52.0002 28.4375 52.0002ZM26.4063 50.4768C30.5703 50.883 34.5313 49.969 37.4766 47.633C41.336 44.7893 43.3672 40.1174 43.3672 34.5315C43.2656 32.5002 42.4531 30.2658 40.0156 29.6565V37.883C39.6094 44.2815 34.9375 48.5471 26.4063 50.4768Z" fill="#93BC6D"/>
<path fill-rule="evenodd" clip-rule="evenodd" d="M24.477 46.4141C23.3598 46.4141 22.3442 46.3125 21.4301 46.1094C19.3988 45.6016 17.7738 44.6875 16.6567 43.2656C15.4379 41.7422 14.8285 39.6094 15.0317 37.1719C15.0317 36.7656 15.3363 36.4609 15.7426 36.4609C16.1488 36.4609 16.4535 36.8672 16.4535 37.1719C16.1488 42.3516 19.1957 44.1797 21.7348 44.6875C22.6488 44.8906 23.5629 44.9922 24.477 44.9922C30.1645 44.9922 36.8676 41.6406 38.6957 37.375C38.7973 36.9688 39.2035 36.7656 39.6098 36.9688C39.9145 37.0703 40.1176 37.5781 40.016 37.8828C38.7973 40.625 35.9535 43.1641 32.1957 44.7891C29.6567 45.9062 26.9145 46.4141 24.477 46.4141ZM35.7504 30.7734C31.9926 30.7734 29.0473 27.3203 29.0473 23.0547C29.0473 18.7891 31.9926 15.3359 35.7504 15.3359C39.5082 15.3359 42.5551 18.7891 42.5551 23.0547C42.5551 27.3203 39.5082 30.7734 35.7504 30.7734ZM35.7504 16.7578C32.8051 16.7578 30.4692 19.6016 30.4692 23.0547C30.4692 26.5078 32.8051 29.3516 35.7504 29.3516C38.6957 29.3516 41.1332 26.5078 41.1332 23.0547C41.1332 19.6016 38.6957 16.7578 35.7504 16.7578Z" fill="#93BC6D"/>
<path fill-rule="evenodd" clip-rule="evenodd" d="M33.3122 32.3986C32.6013 32.3986 31.8904 32.2971 30.9763 31.9924C30.6716 31.7893 30.2654 31.6877 29.9607 31.5861C27.0154 30.6721 23.9685 29.758 20.0075 23.0549C19.8044 22.7502 20.0075 22.344 20.3122 22.1408C20.6169 21.9377 21.1247 22.0393 21.2263 22.344C24.8825 28.5393 27.7263 29.4533 30.3669 30.2658C30.6716 30.3674 31.0779 30.469 31.4841 30.5705C32.7029 31.0783 33.6169 31.0783 34.2263 30.7736C34.531 30.6721 34.7341 30.3674 34.8357 29.9611C34.9372 29.5549 35.2419 29.3518 35.6482 29.3518C36.0544 29.4533 36.2575 29.8596 36.156 30.2658C35.9529 31.0783 35.5466 31.6877 34.8357 32.094C34.4294 32.2971 33.9216 32.3986 33.3122 32.3986Z" fill="#93BC6D"/>
<path fill-rule="evenodd" clip-rule="evenodd" d="M26.7109 46.3125C26.4062 46.3125 26.1016 46.1094 26 45.8047C25.1875 43.3672 25.4922 40.7266 26.9141 38.0859C27.5234 37.0703 28.0312 36.3594 28.5391 35.75C26.9141 35.2422 25.2891 34.0234 23.7656 32.2969C22.2422 30.6719 20.9219 28.4375 20.0078 26.3047C19.9062 25.8984 20.0078 25.4922 20.4141 25.3906C20.7188 25.1875 21.2266 25.3906 21.3281 25.6953C22.9531 29.6562 26.3047 34.125 29.9609 34.6328C30.2656 34.6328 30.4688 34.8359 30.5703 35.1406C30.6719 35.4453 30.5703 35.6484 30.3672 35.8516C30.3672 35.9531 25.5938 40.3203 27.3203 45.2969C27.5234 45.7031 27.3203 46.1094 26.9141 46.2109C26.8125 46.3125 26.8125 46.3125 26.7109 46.3125ZM16.5547 29.25C16.3516 29.25 16.1484 29.1484 16.0469 28.9453C15.7422 28.7422 15.7422 28.2344 16.0469 27.9297C16.9609 27.1172 17.4688 22.3438 17.6719 19.2969C17.6719 18.8906 17.9766 18.5859 18.3828 18.5859C18.7891 18.5859 19.0938 18.9922 19.0938 19.2969C19.0938 19.3984 18.9922 21.3281 18.6875 23.4609C18.1797 27.5234 17.4688 28.5391 17.0625 29.0469C16.8594 29.1484 16.7578 29.25 16.5547 29.25Z" fill="#93BC6D"/>
</svg>
