<svg width="52" height="52" viewBox="0 0 52 52" fill="none" xmlns="http://www.w3.org/2000/svg">
<path d="M11.2004 32.5691C9.3346 32.9189 7.62521 33.8444 6.31235 35.2155C4.99949 36.5867 4.14909 38.3346 3.88061 40.2139L2.44573 50.2596C2.4292 50.3749 2.43763 50.4924 2.47047 50.6041C2.50331 50.7159 2.55979 50.8192 2.63607 50.9072C2.71236 50.9952 2.80667 51.0658 2.91261 51.1141C3.01855 51.1625 3.13365 51.1875 3.25011 51.1875H48.7501C48.8666 51.1875 48.9817 51.1625 49.0876 51.1141C49.1936 51.0658 49.2879 50.9952 49.3641 50.9072C49.4404 50.8192 49.4969 50.7159 49.5297 50.6041C49.5626 50.4924 49.571 50.3749 49.5545 50.2596L48.1196 40.2139C47.8511 38.3346 47.0007 36.5867 45.6879 35.2155C44.375 33.8444 42.6656 32.9189 40.7998 32.5691L32.5001 31.0131V27.027C33.7477 26.0634 34.7645 24.8334 35.4763 23.4268C35.7501 23.5168 36.0364 23.5626 36.3245 23.5625C37.0337 23.561 37.7134 23.2786 38.2148 22.7772C38.7162 22.2757 38.9986 21.5961 39.0001 20.8869C39.0003 20.4335 38.9399 19.9821 38.8205 19.5447L38.1876 17.225V13C38.1876 9.76767 36.9036 6.66774 34.618 4.38214C32.3324 2.09654 29.2324 0.8125 26.0001 0.8125C22.7678 0.8125 19.6678 2.09654 17.3822 4.38214C15.0966 6.66774 13.8126 9.76767 13.8126 13V17.225L13.1797 19.5455C13.0604 19.9827 13 20.4338 13.0001 20.8869C13.0016 21.5961 13.284 22.2757 13.7854 22.7772C14.2869 23.2786 14.9665 23.561 15.6757 23.5625C15.9638 23.5626 16.2502 23.5168 16.5239 23.4268C17.2355 24.8333 18.2524 26.063 19.5001 27.0262V31.0131L11.2004 32.5691ZM21.0195 32.9493C22.5665 33.7208 24.2714 34.1232 26.0001 34.125C27.728 34.1231 29.4319 33.721 30.9783 32.9501L31.8038 32.5374L34.9376 33.1232V39H17.0626V33.1232L20.194 32.5366L21.0195 32.9493ZM36.5626 49.5625H33.3126V44.6875H36.5626V49.5625ZM37.9504 43.3006C37.8748 43.225 37.7851 43.1651 37.6864 43.1242C37.5877 43.0834 37.4819 43.0624 37.3751 43.0625H32.5001C32.2846 43.0625 32.078 43.1481 31.9256 43.3005C31.7732 43.4528 31.6876 43.6595 31.6876 43.875V49.5625H29.2501V43.875C29.2501 43.6595 29.1645 43.4528 29.0121 43.3005C28.8598 43.1481 28.6531 43.0625 28.4376 43.0625H23.5626C23.3471 43.0625 23.1405 43.1481 22.9881 43.3005C22.8357 43.4528 22.7501 43.6595 22.7501 43.875V49.5625H20.3126V43.875C20.3126 43.6595 20.227 43.4528 20.0746 43.3005C19.9223 43.1481 19.7156 43.0625 19.5001 43.0625H14.6251C14.4096 43.0625 14.203 43.1481 14.0506 43.3005C13.8982 43.4528 13.8126 43.6595 13.8126 43.875V49.5625H12.1876V42.5872C12.5799 42.8361 13.0239 42.9922 13.4856 43.0435C13.9474 43.0948 14.4148 43.04 14.8522 42.8833C15.2895 42.7265 15.6853 42.472 16.0094 42.1391C16.3335 41.8061 16.5773 41.4036 16.7222 40.9622L16.8359 40.6217H35.1643L35.2772 40.9614C35.4222 41.4028 35.6661 41.8054 35.9903 42.1383C36.3144 42.4712 36.7103 42.7257 37.1477 42.8824C37.5852 43.0392 38.0526 43.094 38.5144 43.0427C38.9762 42.9914 39.4202 42.8353 39.8126 42.5864V49.5625H38.1876V43.875C38.1876 43.6595 38.1027 43.4529 37.9504 43.3006ZM27.6251 49.5625H24.3751V44.6875H27.6251V49.5625ZM18.6876 49.5625H15.4376V44.6875H18.6876V49.5625ZM15.4376 39.6801L15.1809 40.4519C15.0852 40.7391 14.9015 40.989 14.656 41.166C14.4104 41.343 14.1153 41.4383 13.8126 41.4383C13.5099 41.4383 13.2148 41.343 12.9693 41.166C12.7237 40.989 12.54 40.7391 12.4444 40.4519L12.1876 39.6809V34.0381L15.4376 33.4279V39.6801ZM39.8126 39.6801L39.5559 40.4519C39.4602 40.7391 39.2765 40.989 39.031 41.166C38.7854 41.343 38.4903 41.4383 38.1876 41.4383C37.8849 41.4383 37.5898 41.343 37.3443 41.166C37.0987 40.989 36.915 40.7391 36.8194 40.4519L36.5626 39.6809V33.4246L39.8126 34.0348V39.6801ZM5.48936 40.4438C5.68585 39.0645 6.2655 37.768 7.16236 36.7018C8.05922 35.6356 9.23731 34.8424 10.5626 34.4126V49.5625H4.18692L5.48936 40.4438ZM45.7983 38.1623C46.1568 38.8796 46.3974 39.65 46.5109 40.4438L47.8133 49.5625H41.4376V34.4126C42.3752 34.7204 43.243 35.2099 43.9912 35.8534C44.7395 36.4968 45.3536 37.2814 45.7983 38.1623ZM34.1527 7.25644L34.3047 6.49512C34.8942 7.24052 35.3804 8.06206 35.7501 8.9375H35.5324C35.1595 8.93772 34.8018 8.78986 34.5379 8.52643C34.274 8.263 34.1255 7.90556 34.1251 7.53269C34.125 7.43991 34.1343 7.34736 34.1527 7.25644ZM32.934 5.05294L32.5578 6.93631C32.5185 7.13266 32.4992 7.33246 32.5001 7.53269C32.501 8.33598 32.8205 9.10612 33.3885 9.67414C33.9565 10.2422 34.7266 10.5616 35.5299 10.5625H36.2677C36.4607 11.3607 36.5597 12.1788 36.5626 13V13.7369C35.4447 12.3113 33.8909 11.2906 32.1385 10.8306C32.0088 10.4828 31.8415 10.1501 31.6397 9.83856C31.1405 9.09074 30.8744 8.21162 30.8751 7.3125C30.8751 6.66603 30.6183 6.04605 30.1612 5.58893C29.7041 5.13181 29.0841 4.875 28.4376 4.875C27.7911 4.875 27.1712 5.13181 26.714 5.58893C26.2569 6.04605 26.0001 6.66603 26.0001 7.3125C26.0003 7.76322 25.9276 8.21101 25.7848 8.6385L25.1437 10.5625H21.9376C20.6845 10.5647 19.4482 10.8516 18.3222 11.4016C17.1962 11.9515 16.2098 12.75 15.4376 13.7369V13C15.4398 12.2025 15.5331 11.4079 15.7155 10.6316L18.7006 9.35106C19.3382 9.07717 20.025 8.93644 20.7189 8.9375C21.4731 8.9375 22.1964 8.63789 22.7297 8.10458C23.263 7.57128 23.5626 6.84796 23.5626 6.09375C23.5627 5.19984 23.4187 4.31175 23.136 3.46369C23.073 3.27346 23.0188 3.08042 22.9735 2.88519C24.6814 2.3701 26.4924 2.29884 28.2355 2.67813C29.9786 3.05743 31.5962 3.87476 32.9356 5.05294H32.934ZM30.1885 10.5682C30.1463 10.5682 30.1073 10.5625 30.061 10.5625H26.8565L27.3261 9.15281C27.5242 8.55947 27.6252 7.93803 27.6251 7.3125C27.6251 7.09701 27.7107 6.89035 27.8631 6.73798C28.0155 6.5856 28.2221 6.5 28.4376 6.5C28.6531 6.5 28.8598 6.5856 29.0121 6.73798C29.1645 6.89035 29.2501 7.09701 29.2501 7.3125C29.2528 8.46429 29.5785 9.59223 30.1902 10.5682H30.1885ZM21.4542 3.47994C21.4989 3.6465 21.5395 3.81387 21.5939 3.97719C21.822 4.65952 21.9381 5.3743 21.9376 6.09375C21.9376 6.41698 21.8092 6.72698 21.5806 6.95554C21.3521 7.1841 21.0421 7.3125 20.7189 7.3125C19.8051 7.31159 18.9008 7.4971 18.0612 7.85769L16.4321 8.55644C17.4697 6.3351 19.2441 4.54138 21.4542 3.47994ZM14.6251 20.8869C14.6252 20.5781 14.6664 20.2708 14.7478 19.9729L15.5375 17.0763C15.9225 15.6734 16.757 14.4355 17.913 13.5524C19.0691 12.6694 20.4829 12.1899 21.9376 12.1875H30.0626C31.5174 12.1899 32.9312 12.6694 34.0872 13.5524C35.2433 14.4355 36.0777 15.6734 36.4627 17.0763L37.2524 19.9729C37.3338 20.2708 37.3751 20.5781 37.3751 20.8869C37.3754 21.1393 37.2847 21.3834 37.1198 21.5745C36.9548 21.7655 36.7266 21.8908 36.4769 21.9274C36.2271 21.964 35.9725 21.9095 35.7597 21.7737C35.5469 21.638 35.39 21.4302 35.3179 21.1884L33.9789 16.7261C33.7299 15.8817 33.2134 15.141 32.5071 14.6156C31.8008 14.0901 30.9429 13.8083 30.0626 13.8125H21.9376C21.0573 13.8083 20.1994 14.0901 19.4931 14.6156C18.7868 15.141 18.2703 15.8817 18.0214 16.7261L16.6824 21.1884C16.6102 21.4302 16.4533 21.638 16.2405 21.7737C16.0277 21.9095 15.7731 21.964 15.5234 21.9274C15.2736 21.8908 15.0454 21.7655 14.8805 21.5745C14.7155 21.3834 14.6249 21.1393 14.6251 20.8869ZM17.8548 22.4429C18.0254 22.2034 18.1553 21.9374 18.2391 21.6556L19.5814 17.1933C19.731 16.6849 20.0416 16.2389 20.4665 15.9222C20.8914 15.6056 21.4077 15.4355 21.9376 15.4375H30.0626C30.5925 15.4355 31.1088 15.6056 31.5337 15.9222C31.9586 16.2389 32.2693 16.6849 32.4189 17.1933L33.7579 21.6556C33.8417 21.9374 33.9716 22.2034 34.1422 22.4429C33.2027 24.4569 31.548 26.0497 29.4995 26.9116L29.2225 25.8034C29.193 25.6854 29.1373 25.5755 29.0597 25.4819C28.9821 25.3882 28.8844 25.3132 28.7739 25.2624C28.6634 25.2115 28.5429 25.1861 28.4212 25.1881C28.2996 25.19 28.18 25.2193 28.0712 25.2736L27.1725 25.7229C26.8065 25.9022 26.4044 25.9954 25.9969 25.9954C25.5893 25.9954 25.1872 25.9022 24.8212 25.7229L23.9225 25.2736C23.8137 25.2193 23.6941 25.19 23.5725 25.1881C23.4508 25.1861 23.3303 25.2115 23.2198 25.2624C23.1093 25.3132 23.0117 25.3882 22.934 25.4819C22.8564 25.5755 22.8007 25.6854 22.7712 25.8034L22.4942 26.9116C20.447 26.049 18.7935 24.4563 17.8548 22.4429ZM28.2995 28.7974C26.8242 29.3918 25.176 29.3918 23.7007 28.7974L24.107 27.1798C24.6972 27.4673 25.3452 27.6167 26.0017 27.6167C26.6583 27.6167 27.3062 27.4673 27.8965 27.1798L28.2995 28.7974ZM22.1001 28.4952L21.9612 29.0526C21.9161 29.232 21.9337 29.4215 22.011 29.5896C22.0882 29.7578 22.2206 29.8945 22.3861 29.9772L22.5575 30.0584C23.6263 30.5928 24.8048 30.8709 25.9997 30.8709C27.1946 30.8709 28.3731 30.5928 29.4419 30.0584L29.6141 29.9723C29.7792 29.8894 29.9111 29.7527 29.988 29.5847C30.065 29.4168 30.0824 29.2277 30.0374 29.0485L29.8985 28.4911C30.2308 28.3601 30.5562 28.2123 30.8735 28.0483V31.1813L30.2527 31.4917C28.9321 32.1518 27.4765 32.497 26.0001 32.5C24.5244 32.4984 23.0691 32.1549 21.7483 31.4966L21.1251 31.1854V28.0524C21.442 28.2149 21.7662 28.3636 22.1001 28.4952Z" fill="#93BC6D"/>
</svg>
