<svg width="52" height="52" viewBox="0 0 52 52" fill="none" xmlns="http://www.w3.org/2000/svg">
<g clip-path="url(#clip0_425_1033)">
<path d="M50.2446 32.2751C50.0235 30.4634 49.305 29.0436 47.6864 28.0548C46.5138 27.3367 45.5643 27.225 41.0735 26.1069V25.8722H45.5561C46.643 25.8722 47.5289 24.9947 47.5423 23.9108C48.1081 14.3162 48.1934 13.217 48.1548 12.7635C48.1548 12.3427 47.8139 12.0018 47.3931 12.0018C47.2931 12.0018 47.194 12.0215 47.1016 12.0597C47.0092 12.098 46.9252 12.1541 46.8545 12.2249C46.7837 12.2956 46.7276 12.3796 46.6894 12.472C46.6511 12.5644 46.6314 12.6635 46.6314 12.7635V13.4861C45.9925 24.3221 46.0191 23.8417 46.0191 23.8856C46.0191 24.1366 45.807 24.3486 45.5561 24.3486H41.0735V24.1515C41.3192 23.9873 43.1397 23.1846 44.4615 21.0431C45.9255 18.6806 45.7216 16.6838 45.7242 14.7502C45.7242 13.9753 45.1198 13.3453 44.3482 13.3157H44.3481C38.6992 13.0998 35.8006 9.89782 35.0466 8.9215C34.9327 8.77369 34.7876 8.65291 34.6216 8.56782C34.4556 8.48272 34.2728 8.43543 34.0863 8.42933C33.8996 8.42319 33.7138 8.45815 33.5421 8.53174C33.3704 8.60533 33.217 8.71574 33.0927 8.85518C31.9073 10.1896 30.5664 10.6118 29.8727 10.7446C29.2441 10.8651 28.7878 11.4178 28.7878 12.059C28.7905 16.8467 28.7819 16.583 28.7947 16.9197C28.8151 19.8932 30.8163 22.8818 33.4088 24.1366V24.3483H28.8617C28.6108 24.3483 28.3988 24.1363 28.3988 23.8853C28.3988 23.8409 28.4243 24.3024 27.7852 13.4634C27.7842 13.4494 27.783 13.4354 27.7815 13.4215C27.7725 13.3424 26.931 5.49529 31.3368 4.52709C31.4463 4.50302 31.5492 4.45507 31.638 4.38665C31.7269 4.31823 31.7995 4.23104 31.8508 4.1313C31.8692 4.09576 33.7483 0.587075 39.8101 1.76754C42.2228 2.22761 45.833 5.10072 46.511 9.32917C46.5776 9.74446 46.9678 10.0265 47.3838 9.96068C47.4825 9.94485 47.5772 9.90971 47.6624 9.85728C47.7476 9.80485 47.8216 9.73616 47.8803 9.65512C47.9389 9.57408 47.981 9.48228 48.0042 9.38496C48.0274 9.28765 48.0311 9.18673 48.0153 9.08796C47.722 7.08504 46.7249 4.97072 45.2173 3.36623L45.1632 3.30834C43.6505 1.70629 41.3993 0.524919 40.1007 0.27213C38.0574 -0.125589 35.1064 -0.275698 32.6495 1.26815C31.5914 1.93278 30.9745 2.69968 30.689 3.12004C28.4414 3.75826 26.9689 5.7625 26.4213 8.94019C26.0299 11.2109 26.2381 13.3183 26.2657 13.5731C26.9792 24.5914 26.7345 24.179 27.1475 24.8849C24.9829 24.5368 22.7797 25.1556 21.1102 26.7338L20.4443 26.568L18.5917 25.6813V24.1353C22.3646 22.2635 22.9682 18.519 23.0047 18.4501C23.1401 17.84 23.2087 17.217 23.2094 16.5921V16.5847C24.5849 16.285 25.6074 15.1936 25.6074 13.8963C25.6074 13.359 25.4314 12.8572 25.1281 12.432C25.1406 10.4287 25.1972 9.25026 24.7682 7.67035C24.6584 7.39075 24.2989 5.62122 22.7045 3.71926L22.697 3.71012C19.7502 0.205403 14.6681 -1.13238 10.1094 1.089C6.65051 2.81373 4.35347 6.37106 4.35347 10.3885C4.35357 11.0571 4.35326 12.3511 4.35377 12.4321C3.22135 14.0192 4.18822 16.1309 6.273 16.5849C6.34257 20.0387 8.20035 22.7641 10.9271 24.1533V25.664L8.99843 26.5872C6.8972 27.1754 5.26692 27.3292 4.01902 28.2545C2.50747 29.4086 1.97782 30.4542 1.75519 32.2827C-0.0518072 48.6275 -0.00965866 47.6351 0.00273197 48.3628C-0.0193071 50.304 1.33757 51.9975 3.58271 51.9975L10.2417 51.9974C10.6624 51.9974 11.0034 51.6565 11.0034 51.2357C11.0034 50.8149 10.6624 50.474 10.2417 50.474H7.37952L8.13484 36.1873C8.14549 35.9855 8.07557 35.7878 7.94045 35.6376C7.80534 35.4875 7.61609 35.3971 7.41436 35.3865C6.99582 35.3631 6.63568 35.6868 6.61354 36.1069L6.45469 39.1118L2.56922 38.7042L2.58191 38.5911C3.36608 32.3814 3.08424 31.4405 4.13226 30.1944L4.141 30.1839C5.41713 28.677 7.44046 28.6437 9.00706 28.1548L11.3487 31.1523C11.9086 31.8693 12.972 31.9335 13.6141 31.2867L13.9794 30.9186V34.6047C13.9794 35.0255 14.3203 35.3664 14.7411 35.3664C15.1618 35.3664 15.5028 35.0255 15.5028 34.6047V30.9187L15.8679 31.2867C16.0192 31.439 16.2011 31.5574 16.4016 31.634C16.6021 31.7106 16.8167 31.7436 17.0309 31.7309C17.2452 31.7182 17.4543 31.6601 17.6444 31.5603C17.8345 31.4606 18.0012 31.3215 18.1334 31.1524L19.2037 29.7823C18.7599 31.212 18.9157 32.2861 18.8829 32.8933C17.4227 34.2613 18.1674 36.5055 20.2296 36.9632C20.5232 38.6818 21.5663 40.2228 23.2151 41.1255V42.0519C20.528 42.7756 18.4147 42.8054 17.4584 45.0841C17.4212 45.1735 17.3886 45.2647 17.3607 45.3574C17.3233 45.4775 17.2914 45.5993 17.2651 45.7224C17.1478 46.2903 17.1432 46.6495 16.6957 50.474H13.7963C13.6963 50.474 13.5972 50.4937 13.5048 50.5319C13.4124 50.5702 13.3284 50.6263 13.2577 50.697C13.187 50.7678 13.1309 50.8518 13.0926 50.9442C13.0543 51.0366 13.0346 51.1357 13.0346 51.2357C13.0346 51.6565 13.3756 51.9974 13.7963 51.9974H17.385L17.3867 51.9975L17.3888 51.9974H34.6123L34.6144 51.9975L34.6161 51.9974H37.84C38.2608 51.9974 38.6018 51.6565 38.6018 51.2357C38.6018 50.8149 38.2608 50.474 37.84 50.474H35.3051C34.8916 47.4361 34.9309 46.131 34.586 45.1952C34.1275 43.9446 33.0118 43.1084 31.8031 42.8029L28.7858 42.0517V41.1121C30.3725 40.2423 31.4578 38.6991 31.7471 36.963C31.7576 36.9571 33.5206 36.6351 33.818 34.9719C33.9027 34.5083 33.8383 34.0187 33.6049 33.5662C35.0551 33.2711 36.473 32.1992 37.2394 31.5349C41.1215 34.9023 44.6081 34.4806 44.8926 28.6275C45.4512 28.8008 48.0904 29.205 48.618 31.7567C48.6576 31.9481 48.7031 32.2195 48.7315 32.4517L49.4309 38.7021L45.5759 39.1065L45.4173 36.1066C45.3952 35.6865 45.0317 35.3619 44.6165 35.3862C44.4148 35.3968 44.2255 35.4872 44.0904 35.6373C43.9553 35.7875 43.8854 35.9852 43.896 36.187L44.6512 50.4737H41.3945C40.9738 50.4737 40.6328 50.8146 40.6328 51.2354C40.6328 51.6562 40.9738 51.9971 41.3945 51.9971L48.4175 51.9972C49.4436 51.9972 50.3244 51.654 50.965 51.0047C51.6235 50.3373 52.0093 49.3491 51.9976 48.3603C52.0075 47.7186 52.0598 48.6224 50.2446 32.2751ZM6.32744 40.6302L5.83293 50.474H3.58261C2.25783 50.474 1.55522 49.6069 1.52597 48.3483C1.51683 47.809 1.54577 47.9915 2.39981 40.2181L6.32744 40.6302ZM23.2093 14.9947V12.7984C24.3726 13.2783 24.3728 14.5147 23.2093 14.9947ZM6.27279 14.9949C5.10879 14.515 5.10869 13.2782 6.27279 12.7982V14.9949ZM6.93122 11.1286C6.57211 11.1382 6.21657 11.2026 5.8769 11.3196C5.88655 10.5224 5.82775 9.80022 6.03443 8.71868C6.12269 8.48254 6.45835 5.89097 8.85492 3.76121C9.17576 3.51279 9.70266 2.95856 11.0615 2.32186C13.9895 0.984693 17.5715 1.19523 20.6268 3.76131C22.6931 5.59695 23.1451 7.67898 23.2968 8.06482C23.7219 9.63264 23.573 10.7403 23.6049 11.3197C23.2654 11.2027 22.91 11.1383 22.551 11.1287C22.3579 11.0195 22.1791 10.8682 22.0384 10.7134C20.9999 9.51676 21.8808 8.5901 20.7668 7.6604C19.9813 7.00491 19.2291 7.25536 17.839 7.43716C11.3649 8.1352 10.0658 6.53346 8.71537 7.6604C8.31705 7.99281 8.06629 8.47351 8.04922 9.06978C7.98818 10.6872 6.99724 11.0541 6.93122 11.1286ZM7.79623 16.5923V12.3861C8.3728 11.9706 8.79683 11.6338 9.17616 10.8289C9.39381 10.369 9.55276 9.78894 9.57419 9.06968C9.57916 8.87244 9.76462 8.72172 9.96662 8.75402C18.0102 9.8249 19.8833 8.09793 19.9079 9.06927C19.9562 10.7723 20.8923 11.7089 20.9073 11.7341C21.1869 12.0428 21.3663 12.1559 21.6855 12.386C21.6856 13.1782 21.6853 15.8269 21.6858 15.911C21.6354 16.131 22.2269 20.4546 17.926 22.7651H17.9261C17.9153 22.7695 16.8056 23.4071 15.2008 23.52C14.7976 23.5464 14.4007 23.529 14.411 23.5292C10.6422 23.3534 7.79623 20.2277 7.79623 16.5923ZM12.5417 30.2048L10.4907 27.5792L11.5225 27.0854L13.6497 29.0884L12.5417 30.2048ZM14.7411 28.0235L12.4504 25.8668V24.7455C13.9693 25.1727 15.5663 25.1548 17.05 24.7403V25.8494L14.7411 28.0235ZM16.9404 30.2048L15.8326 29.0884L17.972 27.0739L19.0014 27.5666L16.9404 30.2048ZM20.1477 35.3179C19.4526 34.9208 19.512 34.202 20.1477 33.8406V35.3179ZM32.1907 21.3432C29.7806 18.6652 30.3132 16.2494 30.311 12.2103C31.1843 12.0201 32.6762 11.5005 34.0286 10.0876C35.1111 11.3937 38.3393 14.5802 44.2006 14.8348C44.1973 16.8594 44.2063 16.4981 44.1938 16.9068L44.1935 16.9045C44.1251 17.1781 44.2652 19.6939 41.7041 21.925L41.6162 21.9967C39.2325 23.9224 35.918 24.006 33.492 22.4285C33.3386 22.3292 32.363 21.5081 32.1907 21.3432ZM29.4555 43.7886L29.4879 43.7967C31.0266 44.2168 31.5443 44.2176 32.2072 44.6146C33.595 45.4462 33.2035 46.4721 33.7636 50.4741H31.7361L31.646 48.83C31.6229 48.4098 31.2638 48.0875 30.8437 48.1112C30.7438 48.1167 30.646 48.1418 30.5559 48.1851C30.4657 48.2284 30.3849 48.289 30.3182 48.3635C30.2514 48.438 30.2 48.5249 30.1669 48.6193C30.1337 48.7136 30.1195 48.8136 30.125 48.9135L30.2106 50.474H21.8112L21.8969 48.9135C21.9024 48.8136 21.8882 48.7136 21.855 48.6192C21.8219 48.5248 21.7705 48.4379 21.7037 48.3634C21.637 48.2889 21.5562 48.2283 21.466 48.185C21.3758 48.1418 21.278 48.1167 21.1781 48.1112C21.0782 48.1056 20.9782 48.1197 20.8837 48.1528C20.7893 48.1859 20.7023 48.2373 20.6278 48.304C20.5532 48.3708 20.4926 48.4516 20.4494 48.5419C20.4062 48.6322 20.3812 48.73 20.3759 48.83L20.2857 50.4741H18.2376C18.7422 46.1445 18.5286 45.3727 19.7939 44.6146C20.4261 44.2355 20.8371 44.2413 22.5454 43.7886C23.4157 44.7732 24.6721 45.3477 26.0005 45.3477C27.3289 45.3477 28.5853 44.7733 29.4555 43.7886ZM24.7384 41.6908C25.0581 41.7604 25.383 41.803 25.7098 41.8183C25.7283 41.8192 25.7465 41.8198 25.7649 41.8203L25.8192 41.8222C26.3697 41.8368 26.9043 41.7749 27.2624 41.6854C27.3001 41.9781 27.0953 42.8294 27.7322 43.291C27.2215 43.6384 26.6181 43.8242 26.0003 43.8242C25.3826 43.8242 24.7792 43.6384 24.2684 43.291C24.9035 42.8307 24.7021 41.9705 24.7384 41.6908ZM30.2975 36.2323C30.2946 36.2853 30.2908 36.3384 30.2861 36.3913C30.1411 37.9482 29.1671 39.2637 27.8208 39.8943C27.7865 39.8986 25.4897 41.1277 23.2786 39.3445C23.2541 39.3105 21.9453 38.3942 21.7071 36.5456C21.6425 36.0492 21.6839 35.6529 21.6711 33.5361C25.0156 34.2279 27.3468 32.8847 28.3668 31.5527C29.0431 32.5485 29.8131 32.9764 30.3053 33.1579C30.3039 36.4188 30.31 36.0058 30.2975 36.2323ZM31.5702 32.161C31.3142 31.8462 31.0125 31.7876 30.8918 31.7492C30.5561 31.6418 29.9115 31.3051 29.3642 30.255C28.9365 29.4344 27.7605 29.4652 27.3678 30.2911C26.9223 31.228 24.8892 32.8577 21.4483 31.9166C21.1151 31.8259 20.7554 31.9018 20.4819 32.1515C20.4564 32.1549 20.4313 32.1594 20.4061 32.1635C20.4082 31.6633 20.4121 31.6441 20.4117 31.6543C20.6071 27.0056 26.1615 24.5985 29.686 27.7147C29.6855 27.7187 29.6948 27.7182 29.6944 27.7221C30.5949 28.5228 31.2104 29.5579 31.471 30.845C31.5989 31.515 31.5646 32.0562 31.5702 32.161ZM30.8713 26.7387C30.4879 26.3754 30.1822 26.1398 29.7555 25.8724H33.4088V26.1071L30.8713 26.7387ZM31.8289 35.319V33.8407C32.1002 33.9959 32.3304 34.2648 32.3304 34.5798C32.3304 34.9753 32.0304 35.1679 31.8289 35.319ZM33.0936 32.1126C33.0782 31.9971 33.1767 30.9356 32.6999 29.5601C33.5013 30.2467 34.4335 30.742 35.4387 31.0113C34.7119 31.5333 33.8348 32.0315 33.0936 32.1126ZM33.0815 27.7584L34.0699 27.5124C34.1147 27.5012 34.1584 27.486 34.2005 27.467C34.6449 27.2655 34.932 26.753 34.932 26.1614L34.9321 24.7362C36.3103 25.1274 37.7662 25.2033 39.55 24.7446V26.1614C39.55 26.7531 39.8372 27.2657 40.2817 27.467C40.3237 27.4861 40.3674 27.5013 40.4121 27.5124L41.398 27.7579C39.163 30.373 35.3213 30.3785 33.0815 27.7584ZM42.0897 32.0323C41.2069 32.4005 39.8155 31.5733 39.0307 31.0058C40.6479 30.5574 42.0233 29.5762 43.0116 28.1596L43.3831 28.2521C43.3196 30.3745 42.8667 31.7083 42.0897 32.0323ZM49.8807 49.9351C49.0731 50.7536 47.9768 50.3767 46.1768 50.474L45.6564 40.63L49.6003 40.2163L50.4585 47.8859C50.5227 48.6433 50.4188 49.3897 49.8807 49.9351Z" fill="#93BC6D"/>
</g>
<defs>
<clipPath id="clip0_425_1033">
<rect width="52" height="52" fill="white"/>
</clipPath>
</defs>
</svg>
