<svg width="60" height="52" viewBox="0 0 60 52" fill="none" xmlns="http://www.w3.org/2000/svg">
<path fill-rule="evenodd" clip-rule="evenodd" d="M31.7082 33.6208H29.2768V32.0234H31.7082V33.6208ZM27.5543 33.6208H25.1222V32.0234H27.5543V33.6208ZM23.3989 33.6208H20.9676V32.0234H23.3989V33.6208ZM31.7082 29.1028H29.2768V27.5053H31.7082V29.1028ZM27.5543 29.1028H25.1222V27.5053H27.5543V29.1028ZM23.3989 29.1028H20.9676V27.5053H23.3989V29.1028ZM31.7082 24.5839H29.2768V22.9877H31.7082V24.5839ZM27.5543 24.5839H25.1222V22.9877H27.5543V24.5839ZM23.3989 24.5839H20.9676V22.9877H23.3989V24.5839ZM31.7082 20.0662H29.2768V18.4694H31.7082V20.0662ZM27.5543 20.0662H25.1222V18.4694H27.5543V20.0662ZM23.3989 20.0662H20.9676V18.4694H23.3989V20.0662ZM31.7082 15.5481H29.2768V13.9521H31.7082V15.5481ZM27.5543 15.5481H25.1222V13.9521H27.5543V15.5481ZM23.3989 15.5481H20.9676V13.9521H23.3989V15.5481ZM31.7082 11.0308H29.2768V9.43418H31.7082V11.0308ZM27.5543 11.0308H25.1222V9.43418H27.5543V11.0308ZM23.3989 11.0308H20.9676V9.43418H23.3989V11.0308ZM52.6288 22.1233C52.6289 22.3029 52.5757 22.4784 52.476 22.6277C52.3763 22.777 52.2346 22.8934 52.0687 22.9621C51.9028 23.0309 51.7203 23.0489 51.5442 23.0139C51.3681 22.9789 51.2064 22.8924 51.0794 22.7655C50.9524 22.6385 50.866 22.4768 50.831 22.3007C50.796 22.1246 50.814 21.942 50.8827 21.7762C50.9515 21.6103 51.0679 21.4686 51.2172 21.3689C51.3665 21.2692 51.542 21.216 51.7216 21.2161C51.9621 21.2163 52.1927 21.312 52.3628 21.4821C52.5329 21.6522 52.6285 21.8828 52.6288 22.1233ZM49.2163 22.1233C49.2163 22.6187 49.3631 23.103 49.6383 23.5149C49.9135 23.9269 50.3047 24.248 50.7624 24.4376C51.22 24.6272 51.7237 24.6768 52.2096 24.5802C52.6954 24.4836 53.1418 24.2451 53.4921 23.8948C53.8424 23.5445 54.081 23.0982 54.1777 22.6123C54.2743 22.1264 54.2247 21.6228 54.0352 21.1651C53.8456 20.7074 53.5246 20.3162 53.1127 20.041C52.7007 19.7657 52.2165 19.6188 51.7211 19.6188C51.0571 19.6196 50.4205 19.8838 49.9509 20.3533C49.4814 20.8228 49.2172 21.4593 49.2163 22.1233ZM45.5531 15.0441C45.7326 15.0441 45.908 15.0974 46.0573 15.1971C46.2065 15.2969 46.3228 15.4387 46.3915 15.6045C46.4602 15.7704 46.4781 15.9529 46.4431 16.1289C46.4081 16.305 46.3217 16.4667 46.1947 16.5936C46.0678 16.7206 45.9061 16.807 45.73 16.8421C45.554 16.8771 45.3715 16.8592 45.2056 16.7905C45.0398 16.7219 44.898 16.6056 44.7982 16.4564C44.6984 16.3071 44.6451 16.1317 44.6451 15.9522C44.6452 15.7114 44.7409 15.4805 44.9112 15.3103C45.0814 15.14 45.3123 15.0443 45.5531 15.0441ZM45.5531 18.4566C46.0485 18.4566 46.5328 18.3097 46.9447 18.0345C47.3566 17.7593 47.6777 17.3681 47.8673 16.9104C48.0568 16.4527 48.1065 15.9491 48.0098 15.4632C47.9132 14.9773 47.6746 14.531 47.3243 14.1807C46.974 13.8304 46.5277 13.5918 46.0418 13.4952C45.5559 13.3985 45.0523 13.4481 44.5946 13.6377C44.1369 13.8273 43.7457 14.1484 43.4705 14.5603C43.1953 14.9722 43.0484 15.4565 43.0484 15.9519C43.0492 16.616 43.3133 17.2526 43.7829 17.7221C44.2524 18.1917 44.889 18.4558 45.5531 18.4566ZM45.2331 23.2413C45.1277 23.4248 45.0994 23.6426 45.1542 23.847C45.2091 24.0514 45.3427 24.2257 45.5258 24.3318C45.6467 24.402 45.784 24.4387 45.9238 24.4384C46.0641 24.4388 46.202 24.4021 46.3236 24.3321C46.4452 24.2622 46.5462 24.1614 46.6164 24.0399L52.0397 14.6451C52.1436 14.4618 52.1709 14.2449 52.1156 14.0417C52.0604 13.8384 51.927 13.6652 51.7446 13.5598C51.5622 13.4545 51.3455 13.4255 51.1418 13.4791C50.9381 13.5328 50.7639 13.6648 50.6571 13.8464L45.2331 23.2413ZM5.41419 21.3827L16.9316 17.3673V50.1028H5.41419V21.3827ZM28.6754 50.1028H24.0004V42.0707H28.6754V50.1028ZM34.1476 4.5528H18.5282V50.1028H22.4032V41.2722C22.4032 41.0605 22.4873 40.8575 22.637 40.7078C22.7866 40.5581 22.9896 40.4741 23.2013 40.4741H29.4747C29.5795 40.4741 29.6832 40.4947 29.7801 40.5349C29.8769 40.575 29.9648 40.6338 30.0389 40.7079C30.113 40.782 30.1718 40.87 30.2119 40.9668C30.252 41.0636 30.2726 41.1674 30.2726 41.2722V50.1028H34.1476V4.5528ZM38.9809 13.0752H35.7442V50.1027H46.0422V30.0902C44.2901 29.6794 42.6608 28.8577 41.2889 27.693C39.917 26.5284 38.8417 25.0541 38.1519 23.3919C37.4621 21.7298 37.1775 19.9274 37.3217 18.1335C37.4658 16.3397 38.0346 14.6059 38.9809 13.0752ZM48.6372 9.28206C46.7077 9.28206 44.8215 9.85422 43.2172 10.9262C41.6128 11.9982 40.3624 13.5218 39.624 15.3045C38.8857 17.0871 38.6925 19.0487 39.0689 20.9411C39.4453 22.8335 40.3745 24.5718 41.7389 25.9362C43.1033 27.3006 44.8416 28.2297 46.734 28.6061C48.6264 28.9825 50.588 28.7893 52.3706 28.0509C54.1533 27.3125 55.6769 26.0621 56.7489 24.4577C57.8208 22.8534 58.393 20.9672 58.3929 19.0377C58.3899 16.4512 57.3611 13.9716 55.5322 12.1427C53.7033 10.3139 51.2236 9.28507 48.6372 9.28206ZM50.8277 42.5834C50.5371 41.4319 51.1402 39.7888 52.5758 37.7974C54.0106 39.7888 54.6133 41.4319 54.3231 42.5834C54.1337 43.3334 53.5606 43.9367 52.5758 44.4187C51.5897 43.9367 51.0171 43.3341 50.8277 42.5834ZM56.9604 50.1028H53.3747V45.8028C54.7319 45.1113 55.5727 44.1627 55.8721 42.9741C56.3407 41.1147 55.4673 38.8268 53.2012 35.9801C53.1262 35.8863 53.0312 35.8105 52.923 35.7585C52.8148 35.7065 52.6962 35.6794 52.5762 35.6794C52.4561 35.6794 52.3376 35.7065 52.2294 35.7585C52.1212 35.8105 52.0261 35.8863 51.9512 35.9801C49.6852 38.8268 48.8117 41.1147 49.2804 42.9741C49.5798 44.1627 50.4206 45.1116 51.7777 45.8028V50.1028H47.6402V30.3461C47.9688 30.3741 48.3014 30.3901 48.6382 30.3901C50.5327 30.3913 52.3973 29.9184 54.0623 29.0144C55.7272 28.1105 57.1394 26.8042 58.1702 25.2148C59.2011 23.6253 59.8177 21.8031 59.964 19.9143C60.1103 18.0254 59.7815 16.13 59.0077 14.4008C58.2339 12.6715 57.0397 11.1634 55.5338 10.0139C54.0279 8.86441 52.2583 8.11003 50.3862 7.81955C48.5141 7.52907 46.5991 7.71171 44.8157 8.35083C43.0322 8.98996 41.4371 10.0652 40.1757 11.4787H35.7442V3.7548C35.7442 3.5431 35.6602 3.34005 35.5106 3.19028C35.361 3.0405 35.158 2.95625 34.9463 2.95605H17.7296C17.5179 2.95625 17.3149 3.04049 17.1652 3.19027C17.0156 3.34004 16.9316 3.54309 16.9316 3.7548V15.6768L4.35294 20.0614C4.19646 20.116 4.06082 20.2179 3.96481 20.353C3.8688 20.4881 3.81717 20.6497 3.81706 20.8154V50.1029H0.796938C-0.252187 50.1029 -0.253062 51.6996 0.796938 51.6996H56.9609C58.0111 51.6994 58.0102 50.1028 56.9609 50.1028H56.9604Z" fill="#93BC6D"/>
</svg>
