<svg width="15" height="12" viewBox="0 0 15 12" fill="none" xmlns="http://www.w3.org/2000/svg">
<path d="M8.9787 11.8227L15 6.02956L8.9787 0.23638C8.92432 0.168029 8.85523 0.111659 8.77611 0.071087C8.69699 0.0305146 8.60968 0.00668675 8.5201 0.00121641C8.43053 -0.00425393 8.34077 0.00876127 8.2569 0.0393805C8.17304 0.0699997 8.09702 0.117508 8.03401 0.17869C7.97099 0.239871 7.92245 0.313298 7.89166 0.393998C7.86087 0.474698 7.84855 0.560788 7.85555 0.646439C7.86254 0.73209 7.88868 0.815303 7.9322 0.890444C7.97571 0.965586 8.03559 1.0309 8.10777 1.08197L12.6128 5.42986L0.626566 5.42986C0.46039 5.42986 0.301021 5.49304 0.183517 5.60551C0.0660135 5.71797 0 5.87051 0 6.02956C0 6.18862 0.0660135 6.34115 0.183517 6.45362C0.301021 6.56609 0.46039 6.62927 0.626566 6.62927L12.6128 6.62927L8.10777 10.9772C7.99062 11.0901 7.92513 11.2429 7.92572 11.4021C7.9263 11.5612 7.99292 11.7136 8.1109 11.8257C8.22889 11.9379 8.38858 12.0006 8.55485 12C8.72111 11.9994 8.88034 11.9357 8.99749 11.8227L8.9787 11.8227Z" fill="#96ABB2"/>
</svg>
