<svg width="646" height="64" viewBox="0 0 646 64" fill="none" xmlns="http://www.w3.org/2000/svg">
<g clip-path="url(#clip0_415_590)">
<path d="M413.6 14.7002V26.0002H437.8V36.5002H413.6V48.6002H443.9L445.5 59.9002H401.5V3.30023H445.5L443.9 14.6002L413.6 14.7002ZM562.7 25.6002H537.6V3.30023H525.5V59.9002H537.6V36.9002H562.7V59.9002H574.8V3.30023H562.7V25.6002ZM486.4 50.0002H481C473.3 50.0002 466.7 45.1002 466.7 31.6002C466.7 18.1002 473.3 13.2002 481 13.2002H486.4C494.1 13.2002 499.3 19.0002 500.3 27.1002L513 23.1002C510.3 8.00023 497.5 1.70023 483.7 1.70023C466.8 1.70023 453 15.1002 453 31.6002C453 48.1002 466.7 61.5002 483.7 61.5002C497.5 61.5002 510.4 54.3002 513.8 39.7002L500.6 36.2002C498.9 44.1002 494.1 50.0002 486.4 50.0002ZM645.1 59.9002H632.6L629.4 47.4002H603.9L600.7 59.9002H588.2C588.2 59.9002 598.2 21.8002 601.8 8.50023C602.6 5.60023 605.9 3.30023 616.7 3.30023C627.6 3.30023 630.8 5.60023 631.6 8.50023C635 21.8002 645.1 59.9002 645.1 59.9002ZM626.5 36.1002L620.8 14.7002H612.3L606.6 36.1002H626.5ZM386.4 19.1002C386.4 24.4002 385.2 28.6002 382.9 31.6002C385.2 34.6002 386.4 38.8002 386.4 44.1002C386.4 64.4002 364.8 63.2002 363.4 63.2002C353 63.2002 346.8 59.1002 343.5 56.5002C343 56.1002 317.1 31.6002 317.1 31.6002C317.1 31.6002 343 7.10023 343.5 6.70023C346.8 4.10023 353 0.000230177 363.4 0.000230177C364.7 0.000230177 386.4 -1.19977 386.4 19.1002ZM360.8 37.0002V26.2002C367.2 26.5002 372.1 26.1002 373.3 25.4002C374.7 24.6002 375 21.4002 375 19.1002C375 13.8002 372.6 11.4002 369.8 11.4002H360.2C353.7 11.4002 349.2 16.5002 348.5 17.2002C330.8 34.1002 345.4 20.1002 333.4 31.6002C345.4 43.1002 330.9 29.2002 348.5 46.0002C349.2 46.6002 353.7 51.8002 360.2 51.8002H369.8C372.6 51.8002 375 49.4002 375 44.1002C375 41.8002 374.7 38.6002 373.3 37.8002C372.1 37.1002 367.1 36.7002 360.8 37.0002ZM25.3 42.4002H29.1V51.2002H25.5V45.8002H3.6V51.2002H0V42.4002H2.8C3.4 42.0002 4 41.4002 4.4 40.6002C5.5 38.7002 6 36.0002 6 32.5002V17.7002H25.3V42.4002ZM21.7 21.1002H9.7V32.5002C9.7 35.7002 9.3 38.3002 8.4 40.4002C8.1 41.2002 7.6 41.9002 7.1 42.4002H21.8L21.7 21.1002ZM38.1 45.8002H57.8V42.4002H41.7V33.4002H54.7V30.0002H41.7V21.2002H57.8V17.8002H38.1V45.8002ZM90.5 37.8002C90.5 40.2002 89.7 42.1002 88 43.6002C86.3 45.1002 83.9 45.8002 80.9 45.8002H67.6V17.7002H81C83.5 17.7002 85.4 18.4002 87 19.8002C88.5 21.2002 89.3 22.9002 89.3 25.0002C89.3 27.0002 88.6 28.6002 87.3 29.8002C86.7 30.3002 86 30.7002 85.3 31.0002V31.2002C86.2 31.4002 87.1 31.8002 87.9 32.3002C89.7 33.5002 90.5 35.3002 90.5 37.8002ZM71.3 29.5002H80.9C82.4 29.5002 83.6 29.1002 84.4 28.3002C85.3 27.5002 85.7 26.5002 85.7 25.3002C85.7 24.1002 85.3 23.1002 84.4 22.3002C83.5 21.5002 82.4 21.1002 80.9 21.1002H71.3V29.5002ZM86.9 37.8002C86.9 36.3002 86.4 35.2002 85.4 34.3002C84.4 33.4002 82.9 33.0002 80.9 33.0002H71.3V42.4002H80.9C82.8 42.4002 84.3 42.0002 85.4 41.1002C86.4 40.2002 86.9 39.1002 86.9 37.8002ZM100.8 45.8002H120.5V42.4002H104.4V33.4002H117.4V30.0002H104.4V21.2002H120.5V17.8002H100.8V45.8002ZM133.3 33.1002C133.3 36.8002 132.9 39.3002 132.2 40.7002C131.5 42.1002 130.4 42.8002 128.9 42.8002C128.4 42.8002 128 42.7002 127.6 42.6002C127.5 42.6002 127.3 42.5002 127.1 42.4002V45.8002C127.4 45.9002 127.6 46.0002 127.8 46.0002C128.3 46.1002 128.9 46.2002 129.5 46.2002C131.9 46.2002 133.7 45.2002 135 43.2002C136.3 41.2002 136.9 37.9002 136.9 33.1002V21.1002H149.3V45.8002H152.9V17.7002H133.2V33.1002H133.3ZM188.1 21.1002C190.9 23.9002 192.3 27.5002 192.3 31.8002C192.3 36.1002 190.9 39.7002 188.1 42.5002C185.3 45.3002 181.8 46.7002 177.6 46.7002C173.4 46.7002 169.9 45.3002 167.1 42.5002C164.3 39.7002 162.9 36.2002 162.9 31.8002C162.9 27.5002 164.3 23.9002 167.1 21.1002C169.9 18.3002 173.4 16.9002 177.6 16.9002C181.9 16.9002 185.4 18.3002 188.1 21.1002ZM188.7 31.7002C188.7 28.3002 187.7 25.5002 185.6 23.4002C183.5 21.3002 180.9 20.2002 177.7 20.2002C174.5 20.2002 171.8 21.3002 169.8 23.4002C167.7 25.5002 166.7 28.3002 166.7 31.7002C166.7 35.1002 167.7 37.9002 169.8 40.0002C171.9 42.1002 174.5 43.2002 177.7 43.2002C180.9 43.2002 183.6 42.1002 185.6 40.0002C187.6 37.9002 188.7 35.1002 188.7 31.7002ZM202.3 45.8002H205.9V21.1002H221V45.8002H224.6V17.7002H202.3V45.8002ZM236 45.8002H255.7V42.4002H239.6V33.4002H252.6V30.0002H239.6V21.2002H255.7V17.8002H236V45.8002ZM285 20.3002C286.9 22.0002 287.9 24.2002 287.9 26.9002C287.9 29.6002 286.9 31.8002 285 33.5002C283.1 35.2002 280.6 36.1002 277.4 36.1002H269.2V45.7002H265.6V17.7002H277.4C280.6 17.7002 283.1 18.5002 285 20.3002ZM284.2 26.9002C284.2 25.1002 283.6 23.7002 282.4 22.7002C281.2 21.6002 279.5 21.1002 277.4 21.1002H269.2V32.7002H277.4C279.6 32.7002 281.2 32.2002 282.4 31.1002C283.6 30.1002 284.2 28.7002 284.2 26.9002Z" fill="#2C2D38"/>
</g>
<defs>
<clipPath id="clip0_415_590">
<rect width="645.1" height="63.2" fill="white"/>
</clipPath>
</defs>
</svg>
