<svg width="50" height="50" viewBox="0 0 50 50" fill="none" xmlns="http://www.w3.org/2000/svg">
<path d="M24.5379 24.1665L13.6788 35.0257C13.3258 35.3786 13.3258 35.9487 13.6788 36.3016C13.8597 36.4826 14.086 36.564 14.3213 36.564C14.5565 36.564 14.7828 36.4735 14.9637 36.3016L25.8229 25.4425C26.1758 25.0896 26.1758 24.5195 25.8229 24.1665C25.4609 23.8136 24.8908 23.8136 24.5379 24.1665Z" fill="#93BC6D"/>
<path d="M41.4776 8.51111C39.2153 6.2488 36.2109 5 33.0075 5C29.804 5 26.7997 6.2488 24.5374 8.51111C21.0353 12.0132 20.067 17.2527 22.0126 21.7502L5.27148 38.4823C5.09954 38.6542 5.00905 38.8804 5.00905 39.1157L5 44.0747C5 44.0838 5 44.0928 5 44.1019C5.00905 44.3281 5.09049 44.5453 5.26243 44.7172C5.43436 44.8891 5.6606 44.9796 5.88683 44.9796C5.88683 44.9796 5.89588 44.9796 5.90493 44.9796L15.5152 44.9887C15.7505 44.9887 15.9858 44.8891 16.1577 44.7263C16.3297 44.5543 16.4202 44.3281 16.4202 44.0838V40.3102H20.1937C20.6914 40.3102 21.0986 39.903 21.0986 39.4053V35.6318H24.8722C25.3699 35.6318 25.7771 35.2245 25.7771 34.7268V30.4284L28.2476 27.958C29.7859 28.6276 31.4057 28.9534 33.0165 28.9534C36.1204 28.9534 39.1791 27.7408 41.4866 25.4423C46.147 20.7819 46.147 13.1805 41.4776 8.51111ZM40.2016 24.1663C37.0977 27.2702 32.3831 28.0304 28.4557 26.0757C28.1028 25.9038 27.6865 25.9671 27.415 26.2477L24.2297 29.433C24.0577 29.6049 23.9673 29.8312 23.9673 30.0755V33.849H20.1937C19.696 33.849 19.2888 34.2563 19.2888 34.754V38.5275H15.5152C15.0175 38.5275 14.6103 38.9347 14.6103 39.4324V43.1879L8.0858 43.1788L12.4023 38.8623C12.7552 38.5094 12.7552 37.9393 12.4023 37.5864C12.0494 37.2335 11.4793 37.2335 11.1264 37.5864L6.8189 41.8938L6.82795 39.5048L23.7501 22.5827C24.0215 22.3112 24.0939 21.8859 23.922 21.542C21.9583 17.6237 22.7275 12.9 25.8314 9.79611C27.7408 7.86862 30.2927 6.80985 33.0075 6.80985C35.7222 6.80985 38.2741 7.86862 40.2016 9.78706C42.1291 11.7055 43.1788 14.2574 43.1788 16.9812C43.1788 19.705 42.1201 22.2479 40.2016 24.1663Z" fill="#93BC6D"/>
<path d="M32.4461 11.5247C30.7901 13.1807 30.7901 15.8774 32.4461 17.5425C33.2786 18.375 34.3646 18.7822 35.4505 18.7822C36.5364 18.7822 37.6313 18.366 38.4548 17.5425C40.1108 15.8865 40.1108 13.1898 38.4548 11.5247C36.7988 9.86871 34.1021 9.86871 32.4461 11.5247ZM37.1789 16.2665C36.2287 17.2167 34.6722 17.2167 33.7221 16.2665C32.7719 15.3164 32.7719 13.7599 33.7221 12.8097C34.6722 11.8595 36.2287 11.8595 37.1789 12.8097C38.1291 13.7599 38.1291 15.3073 37.1789 16.2665Z" fill="#93BC6D"/>
</svg>
