<svg width="168" height="65" viewBox="0 0 168 65" fill="none" xmlns="http://www.w3.org/2000/svg">
<path d="M12.4214 21.1809H14.2871V25.5769H12.5196V22.8793H1.76747V25.5769H0V21.1809H1.3747C1.66928 20.981 1.96386 20.6813 2.16024 20.2817C2.70031 19.3325 2.94579 17.9837 2.94579 16.2353V8.84202H12.4214V21.1809ZM10.6539 10.5405H4.76236V16.2353C4.76236 17.8339 4.56597 19.1327 4.1241 20.1818C3.97681 20.5814 3.73133 20.9311 3.48585 21.1809H10.703L10.6539 10.5405ZM18.7058 22.8793H28.3778V21.1809H20.4732V16.6849H26.8558V14.9865H20.4732V10.5904H28.3778V8.89198H18.7058V22.8793ZM44.4323 18.8829C44.4323 20.0818 44.0395 21.031 43.2049 21.7803C42.3703 22.5296 41.1919 22.8793 39.719 22.8793H33.1892V8.84202H39.7681C40.9956 8.84202 41.9284 9.1917 42.7139 9.89107C43.4504 10.5904 43.8431 11.4397 43.8431 12.4887C43.8431 13.4878 43.4995 14.2871 42.8612 14.8865C42.5666 15.1363 42.223 15.3361 41.8793 15.486V15.5859C42.3212 15.6858 42.763 15.8856 43.1558 16.1354C44.0395 16.7349 44.4323 17.6341 44.4323 18.8829ZM35.0058 14.7367H39.719C40.4555 14.7367 41.0447 14.5369 41.4374 14.1372C41.8793 13.7376 42.0757 13.238 42.0757 12.6386C42.0757 12.0391 41.8793 11.5396 41.4374 11.1399C40.9956 10.7403 40.4555 10.5405 39.719 10.5405H35.0058V14.7367ZM42.6648 18.8829C42.6648 18.1336 42.4193 17.5841 41.9284 17.1345C41.4374 16.6849 40.701 16.4851 39.719 16.4851H35.0058V21.1809H39.719C40.6519 21.1809 41.3883 20.981 41.9284 20.5314C42.4193 20.0818 42.6648 19.5323 42.6648 18.8829ZM49.4892 22.8793H59.1612V21.1809H51.2567V16.6849H57.6393V14.9865H51.2567V10.5904H59.1612V8.89198H49.4892V22.8793ZM65.4456 16.5351C65.4456 18.3834 65.2492 19.6323 64.9055 20.3316C64.5619 21.031 64.0218 21.3807 63.2853 21.3807C63.0399 21.3807 62.8435 21.3307 62.6471 21.2808C62.598 21.2808 62.4998 21.2308 62.4016 21.1809V22.8793C62.5489 22.9293 62.6471 22.9792 62.7453 22.9792C62.9908 23.0292 63.2853 23.0791 63.5799 23.0791C64.7582 23.0791 65.642 22.5796 66.2802 21.5805C66.9185 20.5814 67.2131 18.9329 67.2131 16.5351V10.5405H73.301V22.8793H75.0685V8.84202H65.3965V16.5351H65.4456ZM92.3505 10.5405C93.7252 11.9392 94.4125 13.7376 94.4125 15.8856C94.4125 18.0337 93.7252 19.8321 92.3505 21.2308C90.9758 22.6295 89.2574 23.3289 87.1953 23.3289C85.1333 23.3289 83.4149 22.6295 82.0402 21.2308C80.6655 19.8321 79.9781 18.0837 79.9781 15.8856C79.9781 13.7376 80.6655 11.9392 82.0402 10.5405C83.4149 9.14175 85.1333 8.44238 87.1953 8.44238C89.3065 8.44238 91.0249 9.14175 92.3505 10.5405ZM92.645 15.8357C92.645 14.1372 92.1541 12.7385 91.123 11.6894C90.092 10.6404 88.8155 10.0909 87.2444 10.0909C85.6733 10.0909 84.3477 10.6404 83.3658 11.6894C82.3348 12.7385 81.8438 14.1372 81.8438 15.8357C81.8438 17.5342 82.3348 18.9329 83.3658 19.9819C84.3968 21.031 85.6733 21.5805 87.2444 21.5805C88.8155 21.5805 90.1411 21.031 91.123 19.9819C92.105 18.9329 92.645 17.5342 92.645 15.8357ZM99.3222 22.8793H101.09V10.5405H108.503V22.8793H110.271V8.84202H99.3222V22.8793ZM115.868 22.8793H125.54V21.1809H117.635V16.6849H124.018V14.9865H117.635V10.5904H125.54V8.89198H115.868V22.8793ZM139.925 10.1408C140.858 10.9901 141.349 12.0891 141.349 13.4379C141.349 14.7866 140.858 15.8856 139.925 16.7349C138.992 17.5841 137.765 18.0337 136.194 18.0337H132.168V22.8294H130.4V8.84202H136.194C137.765 8.84202 138.992 9.24166 139.925 10.1408ZM139.532 13.4379C139.532 12.5387 139.238 11.8393 138.648 11.3398C138.059 10.7903 137.225 10.5405 136.194 10.5405H132.168V16.3352H136.194C137.274 16.3352 138.059 16.0855 138.648 15.536C139.238 15.0364 139.532 14.337 139.532 13.4379Z" fill="#2C2D38"/>
<path d="M47.3781 37.0644V42.7093H59.2594V47.9546H47.3781V53.9991H62.2543L63.0399 59.644H41.4374V31.3696H63.0399L62.2543 37.0145L47.3781 37.0644ZM120.581 42.5095H108.258V31.3696H102.317V59.644H108.258V48.1544H120.581V59.644H126.522V31.3696H120.581V42.5095ZM83.1203 54.6985H80.4691C76.6887 54.6985 73.4483 52.2507 73.4483 45.5068C73.4483 38.7629 76.6887 36.3151 80.4691 36.3151H83.1203C86.9007 36.3151 89.4538 39.2125 89.9447 43.2588L96.18 41.2606C94.8544 33.7174 88.57 30.5703 81.7947 30.5703C73.4974 30.5703 66.7221 37.2642 66.7221 45.5068C66.7221 53.7493 73.4483 60.4433 81.7947 60.4433C88.57 60.4433 94.9035 56.8465 96.5728 49.5531L90.092 47.8047C89.2574 51.7511 86.9007 54.6985 83.1203 54.6985ZM161.036 59.644H154.899L153.328 53.3996H140.809L139.238 59.644H133.101C133.101 59.644 138.01 40.6112 139.778 33.9672C140.17 32.5185 141.791 31.3696 147.093 31.3696C152.445 31.3696 154.016 32.5185 154.408 33.9672C156.078 40.6112 161.036 59.644 161.036 59.644ZM151.904 47.7547L149.106 37.0644H144.933L142.134 47.7547H151.904ZM34.0238 39.2624C34.0238 41.91 33.4347 44.0081 32.3055 45.5068C33.4347 47.0054 34.0238 49.1035 34.0238 51.7511C34.0238 61.8919 23.419 61.2925 22.7317 61.2925C17.6256 61.2925 14.5817 59.2443 12.9615 57.9455C12.716 57.7457 0 45.5068 0 45.5068C0 45.5068 12.716 33.2678 12.9615 33.068C14.5817 31.7692 17.6256 29.7211 22.7317 29.7211C23.3699 29.7211 34.0238 29.1216 34.0238 39.2624ZM21.4552 48.2043V42.8092C24.5973 42.9591 27.0031 42.7593 27.5922 42.4096C28.2796 42.0099 28.4269 40.4114 28.4269 39.2624C28.4269 36.6148 27.2485 35.4159 25.8738 35.4159H21.1606C17.9693 35.4159 15.76 37.9636 15.4163 38.3133C6.72621 46.7556 13.8943 39.762 8.00273 45.5068C13.8943 51.2516 6.77531 44.3079 15.4163 52.7003C15.76 53 17.9693 55.5976 21.1606 55.5976H25.8738C27.2485 55.5976 28.4269 54.3987 28.4269 51.7511C28.4269 50.6022 28.2796 49.0036 27.5922 48.604C27.0031 48.2543 24.5482 48.0545 21.4552 48.2043Z" fill="#2C2D38"/>
</svg>
