<svg width="50" height="50" viewBox="0 0 50 50" fill="none" xmlns="http://www.w3.org/2000/svg">
<path d="M41.204 25.9898C40.5256 25.9898 39.9088 26.2347 39.4257 26.6327L28.2314 23.5204C28.6323 22.8776 28.8687 22.1224 28.8687 21.3163C28.8687 19.3673 27.5221 17.7245 25.7027 17.2653V14.4184H28.7351C28.7351 14.4184 31.2741 9.72449 31.4797 0H17.5203C17.5203 10 20.2649 14.4184 20.2649 14.4184H23.6057V19.2143H24.6542C25.826 19.2143 26.7717 20.1531 26.7717 21.3163C26.7717 21.9592 26.4839 22.5306 26.0316 22.9082L24.8289 22.5714L23.3384 22.9694C22.9581 22.7347 22.5366 22.0816 22.6394 21.398L20.6041 20.8776C20.2752 22.051 20.9742 23.4796 21.0975 23.5612L9.59489 26.6429C9.11176 26.2347 8.48471 25.9898 7.79599 25.9898C6.25409 25.9898 5 27.2347 5 28.7653V50H44V28.7551C44 27.2347 42.7459 25.9898 41.204 25.9898ZM19.6995 2.08163H29.3005C29.1771 4.22449 28.7454 9.13265 27.3988 12.3367H21.5909C20.2546 9.13265 19.8229 4.22449 19.6995 2.08163ZM10.5817 28.5306L23.0814 25.2041C24.6028 25.7857 25.8055 25.3776 26.3195 25.1633L38.4286 28.5204C38.4183 28.602 38.4183 29.0102 38.4183 29.0102H10.592C10.592 29 10.5817 28.6122 10.5817 28.5306ZM7.76516 28.0714L8.02214 29H7.10727C7.097 29 6.9428 28.1939 7.76516 28.0714ZM41.903 47.9184H7.097V31.0816H10.5817H38.408H41.903V47.9184ZM40.9779 29L41.2348 28.0714C42.0161 28.1429 41.8927 29 41.8927 29H40.9779Z" fill="#93BC6D"/>
<path d="M39.3841 33.6226H37.2871V45.3675H39.3841V33.6226Z" fill="#93BC6D"/>
<path d="M32.4661 33.6226H30.3691V45.3675H32.4661V33.6226Z" fill="#93BC6D"/>
<path d="M25.5482 33.6226H23.4512V45.3675H25.5482V33.6226Z" fill="#93BC6D"/>
<path d="M18.6302 33.6226H16.5332V45.3675H18.6302V33.6226Z" fill="#93BC6D"/>
<path d="M11.7122 33.6226H9.61523V45.3675H11.7122V33.6226Z" fill="#93BC6D"/>
</svg>
