<svg width="50" height="50" viewBox="0 0 50 50" fill="none" xmlns="http://www.w3.org/2000/svg">
<path d="M42.7278 45.1672V9.1737C42.7278 8.80154 42.504 8.46599 42.1653 8.32567C29.9919 3.28426 33.1694 4.60003 29.4375 3.05446C29.4052 3.04022 29.373 3.04429 29.3407 3.03412C29.2903 3.01988 29.244 3.00972 29.1915 3.00565C29.1069 2.99548 29.0282 2.99955 28.9476 3.01378C28.9194 3.01785 28.8911 3.00972 28.8609 3.01582L18.8609 5.66973C18.4617 5.77548 18.1835 6.1395 18.1835 6.5564V25.3371L16.5403 25.0117C16.5383 25.0117 16.5363 25.0117 16.5343 25.0117C16.4133 24.9894 16.2883 24.9873 16.1613 25.0178L5.25202 27.5396C4.83871 27.6352 4.54637 28.0053 4.54637 28.4323V45.1672H0V47.0016H5.45363H16.3629H29.0907H41.8185H50V45.1672H42.7278ZM20 7.26207L28.1815 5.09217V27.3179L20 25.6951V7.26207ZM6.3629 29.1624L15.4536 27.0617V45.1672H6.3629V29.1624ZM17.2722 27.0251L28.1815 29.1848V45.1652H17.2722V27.0251ZM30 45.1672V28.6621V28.4323V5.2691L40.9093 9.78786V45.1652L30 45.1672Z" fill="#93BC6D"/>
<path d="M27.2721 23.1592H20.9092V24.9935H27.2721V23.1592Z" fill="#93BC6D"/>
<path d="M27.2721 18.5732H20.9092V20.4076H27.2721V18.5732Z" fill="#93BC6D"/>
<path d="M27.2721 13.9893H20.9092V15.8236H27.2721V13.9893Z" fill="#93BC6D"/>
<path d="M27.2721 9.40332H20.9092V11.2377H27.2721V9.40332Z" fill="#93BC6D"/>
<path d="M14.5446 31.4116H7.27246V33.246H14.5446V31.4116Z" fill="#93BC6D"/>
<path d="M14.5446 35.9951H7.27246V37.8295H14.5446V35.9951Z" fill="#93BC6D"/>
<path d="M14.5446 40.5811H7.27246V42.4154H14.5446V40.5811Z" fill="#93BC6D"/>
</svg>
