<svg width="50" height="50" viewBox="0 0 50 50" fill="none" xmlns="http://www.w3.org/2000/svg">
<path d="M47.1412 48.3105H45.7296V4.20898C45.7296 3.74023 45.3446 3.36914 44.8807 3.36914H28.9781C28.5043 3.36914 28.1292 3.75 28.1292 4.20898V7.86133H26.4215V4.20898C26.4215 3.74023 26.0365 3.36914 25.5725 3.36914H21.8807V0.839844C21.8807 0.371094 21.4957 0 21.0318 0C20.5678 0 20.1828 0.380859 20.1828 0.839844V3.36914H16.491C16.0172 3.36914 15.6421 3.75 15.6421 4.20898V7.86133H13.0854C12.6116 7.86133 12.2365 8.24219 12.2365 8.70117V15.7227H5.11931C4.64549 15.7227 4.27039 16.1035 4.27039 16.5625V48.3008H2.84893C2.37511 48.3008 2 48.6816 2 49.1406C2 49.5996 2.38498 49.9805 2.84893 49.9805H47.1412C47.615 49.9805 47.9901 49.5996 47.9901 49.1406C47.9901 48.6816 47.615 48.3105 47.1412 48.3105ZM17.33 5.05859H24.7137V7.87109H17.33V5.05859ZM14.497 48.3105H13.9245V46.9043C13.9245 46.4355 13.5395 46.0645 13.0755 46.0645C12.6116 46.0645 12.2266 46.4453 12.2266 46.9043V48.3105H11.6541V45.5078H14.497V48.3105ZM20.173 26.6895V28.1348V48.3105H16.1948V44.6582C16.1948 44.1895 15.8099 43.8184 15.3459 43.8184H10.8052C10.3313 43.8184 9.95622 44.1992 9.95622 44.6582V48.3105H5.97811V17.4121H20.173V26.6895ZM21.0219 15.7324H13.9245V9.55078H28.1193V25.8398H21.8708V23.0273H24.4275C24.9013 23.0273 25.2764 22.6465 25.2764 22.1875C25.2764 21.7285 24.8914 21.3477 24.4275 21.3477H21.8708V18.5352H24.4275C24.9013 18.5352 25.2764 18.1543 25.2764 17.6953C25.2764 17.2363 24.8914 16.8555 24.4275 16.8555H21.8708V16.5723C21.8708 16.1035 21.4957 15.7324 21.0219 15.7324ZM36.0755 48.3105H21.8708V28.1348V27.5293H36.0657V48.3105H36.0755ZM44.0219 48.3105H37.7734V26.6895V25.5664C37.7734 25.0977 37.3884 24.7266 36.9245 24.7266C36.4605 24.7266 36.0755 25.1074 36.0755 25.5664V25.8496H34.3678V25.5664C34.3678 25.0977 33.9828 24.7266 33.5189 24.7266C33.0549 24.7266 32.67 25.1074 32.67 25.5664V25.8496H29.827V8.71094V5.05859H44.0219V48.3105Z" fill="#93BC6D"/>
<path d="M25.5628 46.6309C26.0366 46.6309 26.4117 46.25 26.4117 45.791V30.0586C26.4117 29.5898 26.0267 29.2188 25.5628 29.2188C25.0988 29.2188 24.7139 29.5996 24.7139 30.0586V45.791C24.7139 46.25 25.0988 46.6309 25.5628 46.6309Z" fill="#93BC6D"/>
<path d="M28.978 46.6309C29.4518 46.6309 29.8269 46.25 29.8269 45.791V30.0586C29.8269 29.5898 29.442 29.2188 28.978 29.2188C28.5141 29.2188 28.1291 29.5996 28.1291 30.0586V45.791C28.1192 46.25 28.5042 46.6309 28.978 46.6309Z" fill="#93BC6D"/>
<path d="M32.3833 46.6309C32.8571 46.6309 33.2322 46.25 33.2322 45.791V30.0586C33.2322 29.5898 32.8472 29.2188 32.3833 29.2188C31.9193 29.2188 31.5344 29.5996 31.5344 30.0586V45.791C31.5245 46.25 31.9095 46.6309 32.3833 46.6309Z" fill="#93BC6D"/>
<path d="M33.5188 10.6738C33.9927 10.6738 34.3678 10.293 34.3678 9.83398V8.71094C34.3678 8.24219 33.9828 7.87109 33.5188 7.87109C33.0549 7.87109 32.6699 8.25195 32.6699 8.71094V9.83398C32.6699 10.293 33.045 10.6738 33.5188 10.6738Z" fill="#93BC6D"/>
<path d="M36.9241 10.6738C37.3979 10.6738 37.773 10.293 37.773 9.83398V8.71094C37.773 8.24219 37.3881 7.87109 36.9241 7.87109C36.4602 7.87109 36.0752 8.25195 36.0752 8.71094V9.83398C36.0752 10.293 36.4503 10.6738 36.9241 10.6738Z" fill="#93BC6D"/>
<path d="M40.3304 10.6738C40.8042 10.6738 41.1793 10.293 41.1793 9.83398V8.71094C41.1793 8.24219 40.7943 7.87109 40.3304 7.87109C39.8664 7.87109 39.4814 8.25195 39.4814 8.71094V9.83398C39.4814 10.293 39.8566 10.6738 40.3304 10.6738Z" fill="#93BC6D"/>
<path d="M33.5188 16.2891C33.9927 16.2891 34.3678 15.9082 34.3678 15.4492V14.3262C34.3678 13.8574 33.9828 13.4863 33.5188 13.4863C33.0549 13.4863 32.6699 13.8672 32.6699 14.3262V15.4492C32.6699 15.918 33.045 16.2891 33.5188 16.2891Z" fill="#93BC6D"/>
<path d="M36.9241 16.2891C37.3979 16.2891 37.773 15.9082 37.773 15.4492V14.3262C37.773 13.8574 37.3881 13.4863 36.9241 13.4863C36.4602 13.4863 36.0752 13.8672 36.0752 14.3262V15.4492C36.0752 15.918 36.4503 16.2891 36.9241 16.2891Z" fill="#93BC6D"/>
<path d="M40.3304 16.2891C40.8042 16.2891 41.1793 15.9082 41.1793 15.4492V14.3262C41.1793 13.8574 40.7943 13.4863 40.3304 13.4863C39.8664 13.4863 39.4814 13.8672 39.4814 14.3262V15.4492C39.4814 15.918 39.8566 16.2891 40.3304 16.2891Z" fill="#93BC6D"/>
<path d="M33.5188 21.9141C33.9927 21.9141 34.3678 21.5332 34.3678 21.0742V19.9512C34.3678 19.4824 33.9828 19.1113 33.5188 19.1113C33.0549 19.1113 32.6699 19.4922 32.6699 19.9512V21.0742C32.6699 21.5332 33.045 21.9141 33.5188 21.9141Z" fill="#93BC6D"/>
<path d="M36.9241 21.9141C37.3979 21.9141 37.773 21.5332 37.773 21.0742V19.9512C37.773 19.4824 37.3881 19.1113 36.9241 19.1113C36.4602 19.1113 36.0752 19.4922 36.0752 19.9512V21.0742C36.0752 21.5332 36.4503 21.9141 36.9241 21.9141Z" fill="#93BC6D"/>
<path d="M40.3304 21.9141C40.8042 21.9141 41.1793 21.5332 41.1793 21.0742V19.9512C41.1793 19.4824 40.7943 19.1113 40.3304 19.1113C39.8664 19.1113 39.4814 19.4922 39.4814 19.9512V21.0742C39.4814 21.5332 39.8566 21.9141 40.3304 21.9141Z" fill="#93BC6D"/>
<path d="M9.6704 24.1602C10.1442 24.1602 10.5193 23.7793 10.5193 23.3203V22.1973C10.5193 21.7285 10.1344 21.3574 9.6704 21.3574C9.20645 21.3574 8.82147 21.7383 8.82147 22.1973V23.3203C8.8116 23.7793 9.19658 24.1602 9.6704 24.1602Z" fill="#93BC6D"/>
<path d="M13.0755 24.1602C13.5493 24.1602 13.9244 23.7793 13.9244 23.3203V22.1973C13.9244 21.7285 13.5394 21.3574 13.0755 21.3574C12.6115 21.3574 12.2266 21.7383 12.2266 22.1973V23.3203C12.2266 23.7793 12.6017 24.1602 13.0755 24.1602Z" fill="#93BC6D"/>
<path d="M16.4808 24.1602C16.9546 24.1602 17.3297 23.7793 17.3297 23.3203V22.1973C17.3297 21.7285 16.9447 21.3574 16.4808 21.3574C16.0168 21.3574 15.6318 21.7383 15.6318 22.1973V23.3203C15.6318 23.7793 16.0069 24.1602 16.4808 24.1602Z" fill="#93BC6D"/>
<path d="M9.67032 29.7754C10.1441 29.7754 10.5192 29.3945 10.5192 28.9355V27.8125C10.5192 27.3437 10.1343 26.9727 9.67032 26.9727C9.20637 26.9727 8.81152 27.3437 8.81152 27.8125V28.9355C8.81152 29.3945 9.1965 29.7754 9.67032 29.7754Z" fill="#93BC6D"/>
<path d="M13.0755 29.7754C13.5493 29.7754 13.9244 29.3945 13.9244 28.9355V27.8125C13.9244 27.3437 13.5394 26.9727 13.0755 26.9727C12.6115 26.9727 12.2266 27.3535 12.2266 27.8125V28.9355C12.2266 29.3945 12.6017 29.7754 13.0755 29.7754Z" fill="#93BC6D"/>
<path d="M16.4808 29.7754C16.9546 29.7754 17.3297 29.3945 17.3297 28.9355V27.8125C17.3297 27.3437 16.9447 26.9727 16.4808 26.9727C16.0168 26.9727 15.6318 27.3535 15.6318 27.8125V28.9355C15.6318 29.3945 16.0069 29.7754 16.4808 29.7754Z" fill="#93BC6D"/>
<path d="M9.6704 35.3906C10.1442 35.3906 10.5193 35.0098 10.5193 34.5508V33.4277C10.5193 32.959 10.1344 32.5879 9.6704 32.5879C9.20645 32.5879 8.82147 32.9687 8.82147 33.4277V34.5508C8.8116 35.0195 9.19658 35.3906 9.6704 35.3906Z" fill="#93BC6D"/>
<path d="M13.0755 35.3906C13.5493 35.3906 13.9244 35.0098 13.9244 34.5508V33.4277C13.9244 32.959 13.5394 32.5879 13.0755 32.5879C12.6115 32.5879 12.2266 32.9687 12.2266 33.4277V34.5508C12.2266 35.0195 12.6017 35.3906 13.0755 35.3906Z" fill="#93BC6D"/>
<path d="M16.4808 35.3906C16.9546 35.3906 17.3297 35.0098 17.3297 34.5508V33.4277C17.3297 32.959 16.9447 32.5879 16.4808 32.5879C16.0168 32.5879 15.6318 32.9687 15.6318 33.4277V34.5508C15.6318 35.0195 16.0069 35.3906 16.4808 35.3906Z" fill="#93BC6D"/>
<path d="M9.6704 41.0156C10.1442 41.0156 10.5193 40.6348 10.5193 40.1758V39.0527C10.5193 38.584 10.1344 38.2129 9.6704 38.2129C9.20645 38.2129 8.82147 38.5938 8.82147 39.0527V40.1758C8.8116 40.6348 9.19658 41.0156 9.6704 41.0156Z" fill="#93BC6D"/>
<path d="M13.0755 41.0156C13.5493 41.0156 13.9244 40.6348 13.9244 40.1758V39.0527C13.9244 38.584 13.5394 38.2129 13.0755 38.2129C12.6115 38.2129 12.2266 38.5938 12.2266 39.0527V40.1758C12.2266 40.6348 12.6017 41.0156 13.0755 41.0156Z" fill="#93BC6D"/>
<path d="M16.4808 41.0156C16.9546 41.0156 17.3297 40.6348 17.3297 40.1758V39.0527C17.3297 38.584 16.9447 38.2129 16.4808 38.2129C16.0168 38.2129 15.6318 38.5938 15.6318 39.0527V40.1758C15.6318 40.6348 16.0069 41.0156 16.4808 41.0156Z" fill="#93BC6D"/>
<path d="M40.3304 27.5293C40.8042 27.5293 41.1793 27.1484 41.1793 26.6895V25.5664C41.1793 25.0977 40.7943 24.7266 40.3304 24.7266C39.8664 24.7266 39.4814 25.1074 39.4814 25.5664V26.6895C39.4814 27.1484 39.8566 27.5293 40.3304 27.5293Z" fill="#93BC6D"/>
<path d="M40.3304 33.1445C40.8042 33.1445 41.1793 32.7637 41.1793 32.3047V31.1816C41.1793 30.7129 40.7943 30.3418 40.3304 30.3418C39.8664 30.3418 39.4814 30.7227 39.4814 31.1816V32.3047C39.4814 32.7734 39.8566 33.1445 40.3304 33.1445Z" fill="#93BC6D"/>
<path d="M40.3304 38.7598C40.8042 38.7598 41.1793 38.3789 41.1793 37.9199V36.7969C41.1793 36.3281 40.7943 35.957 40.3304 35.957C39.8664 35.957 39.4814 36.3379 39.4814 36.7969V37.9199C39.4814 38.3887 39.8566 38.7598 40.3304 38.7598Z" fill="#93BC6D"/>
<path d="M40.3304 44.3848C40.8042 44.3848 41.1793 44.0039 41.1793 43.5449V42.4219C41.1793 41.9531 40.7943 41.582 40.3304 41.582C39.8664 41.582 39.4814 41.9629 39.4814 42.4219V43.5449C39.4814 44.0039 39.8566 44.3848 40.3304 44.3848Z" fill="#93BC6D"/>
<path d="M25.2864 13.2031C25.2864 12.7344 24.9014 12.3633 24.4374 12.3633H17.6263C17.1525 12.3633 16.7773 12.7441 16.7773 13.2031C16.7773 13.6621 17.1623 14.043 17.6263 14.043H24.4374C24.9014 14.043 25.2864 13.6719 25.2864 13.2031Z" fill="#93BC6D"/>
</svg>
