<svg width="24" height="24" viewBox="0 0 24 24" fill="none" xmlns="http://www.w3.org/2000/svg">
<path d="M21 12.0002C21 10.1196 20.411 8.28634 19.3157 6.75775C18.2203 5.22916 16.6736 4.08208 14.8929 3.47762C13.1122 2.87315 11.1868 2.84166 9.3873 3.38758C7.58776 3.93349 6.00442 5.02939 4.85967 6.52134C3.71492 8.01329 3.06627 9.82635 3.00481 11.7059C2.94335 13.5854 3.47218 15.437 4.51702 17.0005C5.56187 18.5641 7.07023 19.761 8.83027 20.4233C10.5903 21.0857 12.5136 21.18 14.33 20.6932" stroke="#2C2C45" stroke-width="2" stroke-linecap="round"/>
<path d="M12 16C14.2091 16 16 14.2091 16 12C16 9.79086 14.2091 8 12 8C9.79086 8 8 9.79086 8 12C8 14.2091 9.79086 16 12 16Z" stroke="#2C2C45" stroke-width="2"/>
<path d="M16 9V13.5C16 14.163 16.2634 14.7989 16.7322 15.2678C17.2011 15.7366 17.837 16 18.5 16C19.163 16 19.7989 15.7366 20.2678 15.2678C20.7366 14.7989 21 14.163 21 13.5V12" stroke="#2C2C45" stroke-width="2" stroke-linecap="round"/>
</svg>
