<svg width="60" height="60" viewBox="0 0 60 60" fill="none" xmlns="http://www.w3.org/2000/svg">
<path fill-rule="evenodd" clip-rule="evenodd" d="M28.1496 37.4092C27.1155 37.43 26.0563 37.376 25.0273 37.2865C23.1239 37.1206 21.2217 36.8057 19.3718 36.3328C14.4376 35.0709 9.82859 32.6591 6.65664 28.6219C6.37637 28.2648 6.44231 27.7481 6.80321 27.4709C7.1641 27.1942 7.68715 27.2594 7.96742 27.616C10.909 31.3602 15.2158 33.576 19.7876 34.745C21.5489 35.1952 23.3606 35.4952 25.173 35.6527C26.1421 35.7371 27.1417 35.7889 28.1159 35.7695C28.5728 35.7603 28.9531 36.121 28.9624 36.5727C28.9714 37.024 28.6065 37.3999 28.1496 37.4092Z" fill="#7BAE4D"/>
<path fill-rule="evenodd" clip-rule="evenodd" d="M28.0811 31.2803C25.188 31.1004 22.1276 30.4695 19.3936 29.5428C14.9258 28.0289 10.8308 25.5484 7.91223 21.8201C7.63241 21.4628 7.69926 20.9459 8.06084 20.6698C8.42241 20.3935 8.94523 20.4593 9.22483 20.8167C11.9417 24.2874 15.7749 26.5831 19.9318 27.9917C22.5256 28.8706 25.4401 29.4727 28.185 29.6435C28.6414 29.672 28.9899 30.0628 28.9612 30.5135C28.9325 30.9641 28.537 31.3087 28.0811 31.2803Z" fill="url(#paint0_linear_14_117)"/>
<path fill-rule="evenodd" clip-rule="evenodd" d="M27.7564 26.228C27.1939 26.1901 26.601 26.0984 26.0468 26.0022C24.6622 25.762 23.2868 25.4094 21.9559 24.9646C17.8948 23.6074 14.1813 21.3559 11.3662 18.1295C11.0678 17.7876 11.1067 17.2678 11.4529 16.9729C11.7991 16.6779 12.3249 16.7165 12.6232 17.0584C15.243 20.0614 18.709 22.1482 22.4873 23.411C23.7387 23.8292 25.0323 24.1611 26.3336 24.3867C26.8298 24.4729 27.366 24.5577 27.8696 24.5919C28.3256 24.6227 28.672 25.0152 28.6408 25.4656C28.6097 25.9165 28.2122 26.2588 27.7564 26.228Z" fill="url(#paint1_linear_14_117)"/>
<path fill-rule="evenodd" clip-rule="evenodd" d="M27.9557 20.68C23.0565 19.621 18.1682 17.145 14.6875 13.5557C14.3713 13.2296 14.3826 12.7087 14.7123 12.396C15.0423 12.0838 15.5694 12.0945 15.8858 12.4208C19.137 15.7739 23.7345 18.0886 28.3103 19.078C28.7568 19.1744 29.0414 19.613 28.9436 20.0542C28.846 20.4955 28.4022 20.7767 27.9557 20.68Z" fill="url(#paint2_linear_14_117)"/>
<path fill-rule="evenodd" clip-rule="evenodd" d="M28.0057 18.0748C26.7993 17.8893 25.5054 17.4668 24.3816 17.0131C21.9762 16.0411 19.7351 14.648 17.7443 13.0031C17.3936 12.7132 17.3466 12.1945 17.6398 11.8479C17.9331 11.5013 18.458 11.4551 18.8085 11.7448C20.6683 13.2812 22.7628 14.5871 25.0097 15.495C26.0106 15.8992 27.1852 16.2889 28.2607 16.454C28.7124 16.5237 29.0231 16.9441 28.9529 17.3905C28.8829 17.8367 28.4572 18.1442 28.0057 18.0748Z" fill="url(#paint3_linear_14_117)"/>
<path fill-rule="evenodd" clip-rule="evenodd" d="M27.4509 12.9115C25.7006 12.2324 22.7024 10.7428 21.7301 9.12429C21.4968 8.73617 21.6271 8.23132 22.0199 8.00077C22.4128 7.77022 22.9239 7.89877 23.157 8.28712C23.8869 9.50148 26.7406 10.8739 28.0575 11.385C28.483 11.5503 28.6937 12.0277 28.5266 12.4482C28.3595 12.8685 27.8764 13.0767 27.4509 12.9115Z" fill="url(#paint4_linear_14_117)"/>
<path fill-rule="evenodd" clip-rule="evenodd" d="M28.1347 39.8962C24.9668 39.9038 21.5681 39.4492 18.517 38.6417C13.6735 37.3599 9.06952 35.0064 5.91767 31.0529C5.63469 30.6982 5.69702 30.1809 6.05589 29.9015C6.41497 29.622 6.93848 29.6834 7.22123 30.038C10.1445 33.705 14.4581 35.8697 18.9465 37.0577C21.856 37.8277 25.1093 38.2634 28.1308 38.2562C28.5877 38.2551 28.9615 38.6225 28.9624 39.0742C28.9635 39.5257 28.5915 39.8951 28.1347 39.8962Z" fill="#7BAE4D"/>
<path fill-rule="evenodd" clip-rule="evenodd" d="M32.2411 60V4.97528H26.7593V60H32.2411Z" fill="url(#paint5_linear_14_117)"/>
<path fill-rule="evenodd" clip-rule="evenodd" d="M29.5005 0C41.1142 6.31552 56.0001 17.2084 56.0001 29.57C56.0001 34.3531 54.7446 38.9233 51.0571 42.2234C45.5809 47.1246 36.5016 47.4381 29.5002 47.4381V42.0207C34.7687 42.0207 43.238 41.9127 47.3774 38.2078C49.861 35.9851 50.5182 32.7556 50.5182 29.57C50.5182 21.6518 41.1002 13.9141 35.1431 9.80906C31.6089 7.37342 27.8313 5.167 23.9678 3.23264C25.8454 2.05443 27.7116 0.972648 29.5002 0L29.5005 0Z" fill="url(#paint6_linear_14_117)"/>
<path fill-rule="evenodd" clip-rule="evenodd" d="M29.5001 0C17.8862 6.31529 3 17.2084 3 29.57C3 34.3531 4.25546 38.9233 7.94323 42.2234C13.4192 47.1246 22.4985 47.4381 29.5001 47.4381V42.0207C24.2316 42.0207 15.7621 41.9127 11.6231 38.2078C9.13929 35.9851 8.48187 32.7556 8.48187 29.57C8.48187 21.6518 17.9002 13.9141 23.8572 9.80906C27.3914 7.37342 31.1691 5.167 35.0321 3.23264C33.1547 2.05466 31.2888 0.972648 29.5001 0Z" fill="url(#paint7_linear_14_117)"/>
<path fill-rule="evenodd" clip-rule="evenodd" d="M55.6737 33.5441H50.0798C49.6392 35.2999 48.8135 36.9222 47.3771 38.2078C43.2377 41.9127 34.7684 42.0207 29.4999 42.0207C24.2315 42.0207 15.7619 41.9127 11.6229 38.2078C10.1861 36.9222 9.36068 35.2999 8.91983 33.5441H3.32617C3.90207 36.8309 5.29597 39.8542 7.94306 42.2234C13.4191 47.1248 22.4984 47.4381 29.4999 47.4381C36.5013 47.4381 45.5806 47.1248 51.0568 42.2234C53.7039 39.8542 55.0978 36.8309 55.6737 33.5441Z" fill="url(#paint8_linear_14_117)"/>
<defs>
<linearGradient id="paint0_linear_14_117" x1="26.691" y1="27.8343" x2="10.4803" y2="26.0936" gradientUnits="userSpaceOnUse">
<stop stop-color="#7BAE4D"/>
<stop offset="1" stop-color="#80B446"/>
</linearGradient>
<linearGradient id="paint1_linear_14_117" x1="26.6132" y1="22.7398" x2="13.944" y2="21.0686" gradientUnits="userSpaceOnUse">
<stop stop-color="#7BAE4D"/>
<stop offset="1" stop-color="#86BD3E"/>
</linearGradient>
<linearGradient id="paint2_linear_14_117" x1="26.635" y1="17.607" x2="18.2867" y2="16.5077" gradientUnits="userSpaceOnUse">
<stop stop-color="#7BAE4D"/>
<stop offset="1" stop-color="#8DC535"/>
</linearGradient>
<linearGradient id="paint3_linear_14_117" x1="26.6172" y1="15.5635" x2="19.8321" y2="14.7703" gradientUnits="userSpaceOnUse">
<stop stop-color="#7BAE4D"/>
<stop offset="1" stop-color="#8FC831"/>
</linearGradient>
<linearGradient id="paint4_linear_14_117" x1="26.6977" y1="10.8593" x2="24.2583" y2="10.6053" gradientUnits="userSpaceOnUse">
<stop stop-color="#6B9D3F"/>
<stop offset="1" stop-color="#94CE2B"/>
</linearGradient>
<linearGradient id="paint5_linear_14_117" x1="29.7305" y1="14.0579" x2="26.2561" y2="6.54843" gradientUnits="userSpaceOnUse">
<stop stop-color="#7BAE4D"/>
</linearGradient>
<linearGradient id="paint6_linear_14_117" x1="37.5933" y1="11.6934" x2="29.6886" y2="3.05282" gradientUnits="userSpaceOnUse">
<stop stop-color="#7BAE4D"/>
</linearGradient>
<linearGradient id="paint7_linear_14_117" x1="14.639" y1="26.5068" x2="14.639" y2="-0.00379395" gradientUnits="userSpaceOnUse">
<stop stop-color="#7BAE4D"/>
<stop offset="1" stop-color="#A3E117"/>
</linearGradient>
<linearGradient id="paint8_linear_14_117" x1="31.2184" y1="36.1571" x2="31.7632" y2="48.4312" gradientUnits="userSpaceOnUse">
<stop stop-color="#7BAE4D"/>
<stop offset="0.985577" stop-color="#99D524"/>
</linearGradient>
</defs>
</svg>
