<svg width="267" height="449" viewBox="0 0 267 449" fill="none" xmlns="http://www.w3.org/2000/svg">
<g clip-path="url(#clip0_415_466)">
<g opacity="0.9" filter="url(#filter0_d_415_466)">
<path d="M71 209C71 223.667 77 231 89 231C94.6667 231 99 229.333 102 226C105.333 222.333 107 216.667 107 209V89C107 81.3333 105.333 75.8333 102 72.5C99 68.8333 94.6667 67 89 67C77 67 71 74.3333 71 89V209ZM36 91.5C36 73.5 40.5 59.6667 49.5 50C58.5 40.3333 71.6667 35.5 89 35.5C106.333 35.5 119.5 40.3333 128.5 50C137.5 59.6667 142 73.5 142 91.5V206.5C142 224.5 137.5 238.333 128.5 248C119.5 257.667 106.333 262.5 89 262.5C71.6667 262.5 58.5 257.667 49.5 248C40.5 238.333 36 224.5 36 206.5V91.5ZM227 38H259.5L121.5 388H89L227 38ZM244.5 337C244.5 351.667 250.5 359 262.5 359C268.167 359 272.5 357.333 275.5 354C278.833 350.333 280.5 344.667 280.5 337V217C280.5 209.333 278.833 203.833 275.5 200.5C272.5 196.833 268.167 195 262.5 195C250.5 195 244.5 202.333 244.5 217V337ZM209.5 219.5C209.5 201.5 214 187.667 223 178C232 168.333 245.167 163.5 262.5 163.5C279.833 163.5 293 168.333 302 178C311 187.667 315.5 201.5 315.5 219.5V334.5C315.5 352.5 311 366.333 302 376C293 385.667 279.833 390.5 262.5 390.5C245.167 390.5 232 385.667 223 376C214 366.333 209.5 352.5 209.5 334.5V219.5Z" fill="white"/>
</g>
</g>
<defs>
<filter id="filter0_d_415_466" x="6" y="9.49997" width="339.5" height="415" filterUnits="userSpaceOnUse" color-interpolation-filters="sRGB">
<feFlood flood-opacity="0" result="BackgroundImageFix"/>
<feColorMatrix in="SourceAlpha" type="matrix" values="0 0 0 0 0 0 0 0 0 0 0 0 0 0 0 0 0 0 127 0" result="hardAlpha"/>
<feOffset dy="4"/>
<feGaussianBlur stdDeviation="15"/>
<feComposite in2="hardAlpha" operator="out"/>
<feColorMatrix type="matrix" values="0 0 0 0 0 0 0 0 0 0 0 0 0 0 0 0 0 0 0.25 0"/>
<feBlend mode="normal" in2="BackgroundImageFix" result="effect1_dropShadow_415_466"/>
<feBlend mode="normal" in="SourceGraphic" in2="effect1_dropShadow_415_466" result="shape"/>
</filter>
<clipPath id="clip0_415_466">
<rect width="267" height="449" fill="white"/>
</clipPath>
</defs>
</svg>
