<svg width="1384" height="490" viewBox="0 0 1384 490" fill="none" xmlns="http://www.w3.org/2000/svg">
<path d="M563 152.5C563 165.479 552.479 176 539.5 176C526.521 176 516 165.479 516 152.5C516 139.521 526.521 129 539.5 129C552.479 129 563 139.521 563 152.5Z" fill="#2C2C45"/>
<path d="M532.5 174.5H546.77L539.635 183.365L532.5 174.5Z" fill="#2C2C45"/>
<path d="M552.813 147.953H547.004L543.746 140.492C543.565 140.077 543.081 139.887 542.666 140.069C542.251 140.25 542.061 140.734 542.242 141.149L545.214 147.953H534.786L537.758 141.149C537.939 140.734 537.749 140.25 537.334 140.069C536.919 139.887 536.435 140.077 536.254 140.492L532.996 147.953H527.187C526.427 147.953 525.863 148.641 526.029 149.365L529.088 162.689C529.21 163.218 529.691 163.594 530.246 163.594H549.754C550.309 163.594 550.79 163.218 550.912 162.689L553.971 149.365C554.137 148.641 553.573 147.953 552.813 147.953ZM533.15 150.469C533.04 150.469 532.929 150.447 532.822 150.4C532.407 150.219 532.217 149.736 532.399 149.32L533.015 147.909H534.805L533.902 149.977C533.768 150.285 533.466 150.469 533.15 150.469ZM535.898 159.219C535.898 159.672 535.531 160.039 535.078 160.039C534.625 160.039 534.258 159.672 534.258 159.219V153.203C534.258 152.75 534.625 152.383 535.078 152.383C535.531 152.383 535.898 152.75 535.898 153.203V159.219ZM540.82 159.219C540.82 159.672 540.453 160.039 540 160.039C539.547 160.039 539.18 159.672 539.18 159.219V153.203C539.18 152.75 539.547 152.383 540 152.383C540.453 152.383 540.82 152.75 540.82 153.203V159.219ZM545.742 159.219C545.742 159.672 545.375 160.039 544.922 160.039C544.469 160.039 544.102 159.672 544.102 159.219V153.203C544.102 152.75 544.469 152.383 544.922 152.383C545.375 152.383 545.742 152.75 545.742 153.203V159.219ZM547.178 150.4C547.071 150.447 546.96 150.469 546.85 150.469C546.534 150.469 546.233 150.285 546.098 149.977L545.195 147.909H546.985L547.601 149.32C547.783 149.736 547.593 150.219 547.178 150.4Z" fill="white"/>
<path d="M696 198.5C696 211.479 685.479 222 672.5 222C659.521 222 649 211.479 649 198.5C649 185.521 659.521 175 672.5 175C685.479 175 696 185.521 696 198.5Z" fill="#2C2C45"/>
<path d="M665.5 220.5H679.77L672.635 229.365L665.5 220.5Z" fill="#2C2C45"/>
<path d="M685.813 193.953H680.004L676.746 186.492C676.565 186.077 676.081 185.887 675.666 186.069C675.251 186.25 675.061 186.734 675.242 187.149L678.214 193.953H667.786L670.758 187.149C670.939 186.734 670.749 186.25 670.334 186.069C669.919 185.887 669.435 186.077 669.254 186.492L665.996 193.953H660.187C659.427 193.953 658.863 194.641 659.029 195.365L662.088 208.689C662.21 209.218 662.691 209.594 663.246 209.594H682.754C683.309 209.594 683.79 209.218 683.912 208.689L686.971 195.365C687.137 194.641 686.573 193.953 685.813 193.953ZM666.15 196.469C666.04 196.469 665.929 196.447 665.822 196.4C665.407 196.219 665.217 195.736 665.399 195.32L666.015 193.909H667.805L666.902 195.977C666.768 196.285 666.466 196.469 666.15 196.469ZM668.898 205.219C668.898 205.672 668.531 206.039 668.078 206.039C667.625 206.039 667.258 205.672 667.258 205.219V199.203C667.258 198.75 667.625 198.383 668.078 198.383C668.531 198.383 668.898 198.75 668.898 199.203V205.219ZM673.82 205.219C673.82 205.672 673.453 206.039 673 206.039C672.547 206.039 672.18 205.672 672.18 205.219V199.203C672.18 198.75 672.547 198.383 673 198.383C673.453 198.383 673.82 198.75 673.82 199.203V205.219ZM678.742 205.219C678.742 205.672 678.375 206.039 677.922 206.039C677.469 206.039 677.102 205.672 677.102 205.219V199.203C677.102 198.75 677.469 198.383 677.922 198.383C678.375 198.383 678.742 198.75 678.742 199.203V205.219ZM680.178 196.4C680.071 196.447 679.96 196.469 679.85 196.469C679.534 196.469 679.233 196.285 679.098 195.977L678.195 193.909H679.985L680.601 195.32C680.783 195.736 680.593 196.219 680.178 196.4Z" fill="white"/>
<path d="M781 215.5C781 228.479 770.479 239 757.5 239C744.521 239 734 228.479 734 215.5C734 202.521 744.521 192 757.5 192C770.479 192 781 202.521 781 215.5Z" fill="#2C2C45"/>
<path d="M750.5 237.5H764.77L757.635 246.365L750.5 237.5Z" fill="#2C2C45"/>
<path d="M770.813 210.953H765.004L761.746 203.492C761.565 203.077 761.081 202.887 760.666 203.069C760.251 203.25 760.061 203.734 760.242 204.149L763.214 210.953H752.786L755.758 204.149C755.939 203.734 755.749 203.25 755.334 203.069C754.919 202.887 754.435 203.077 754.254 203.492L750.996 210.953H745.187C744.427 210.953 743.863 211.641 744.029 212.365L747.088 225.689C747.21 226.218 747.691 226.594 748.246 226.594H767.754C768.309 226.594 768.79 226.218 768.912 225.689L771.971 212.365C772.137 211.641 771.573 210.953 770.813 210.953ZM751.15 213.469C751.04 213.469 750.929 213.447 750.822 213.4C750.407 213.219 750.217 212.736 750.399 212.32L751.015 210.909H752.805L751.902 212.977C751.768 213.285 751.466 213.469 751.15 213.469ZM753.898 222.219C753.898 222.672 753.531 223.039 753.078 223.039C752.625 223.039 752.258 222.672 752.258 222.219V216.203C752.258 215.75 752.625 215.383 753.078 215.383C753.531 215.383 753.898 215.75 753.898 216.203V222.219ZM758.82 222.219C758.82 222.672 758.453 223.039 758 223.039C757.547 223.039 757.18 222.672 757.18 222.219V216.203C757.18 215.75 757.547 215.383 758 215.383C758.453 215.383 758.82 215.75 758.82 216.203V222.219ZM763.742 222.219C763.742 222.672 763.375 223.039 762.922 223.039C762.469 223.039 762.102 222.672 762.102 222.219V216.203C762.102 215.75 762.469 215.383 762.922 215.383C763.375 215.383 763.742 215.75 763.742 216.203V222.219ZM765.178 213.4C765.071 213.447 764.96 213.469 764.85 213.469C764.534 213.469 764.233 213.285 764.098 212.977L763.195 210.909H764.985L765.601 212.32C765.783 212.736 765.593 213.219 765.178 213.4Z" fill="white"/>
<path d="M840 148.5C840 161.479 829.479 172 816.5 172C803.521 172 793 161.479 793 148.5C793 135.521 803.521 125 816.5 125C829.479 125 840 135.521 840 148.5Z" fill="#2C2C45"/>
<path d="M809.5 170.5H823.77L816.635 179.365L809.5 170.5Z" fill="#2C2C45"/>
<path d="M829.813 143.953H824.004L820.746 136.492C820.565 136.077 820.081 135.887 819.666 136.069C819.251 136.25 819.061 136.734 819.242 137.149L822.214 143.953H811.786L814.758 137.149C814.939 136.734 814.749 136.25 814.334 136.069C813.919 135.887 813.435 136.077 813.254 136.492L809.996 143.953H804.187C803.427 143.953 802.863 144.641 803.029 145.365L806.088 158.689C806.21 159.218 806.691 159.594 807.246 159.594H826.754C827.309 159.594 827.79 159.218 827.912 158.689L830.971 145.365C831.137 144.641 830.573 143.953 829.813 143.953ZM810.15 146.469C810.04 146.469 809.929 146.447 809.822 146.4C809.407 146.219 809.217 145.736 809.399 145.32L810.015 143.909H811.805L810.902 145.977C810.768 146.285 810.466 146.469 810.15 146.469ZM812.898 155.219C812.898 155.672 812.531 156.039 812.078 156.039C811.625 156.039 811.258 155.672 811.258 155.219V149.203C811.258 148.75 811.625 148.383 812.078 148.383C812.531 148.383 812.898 148.75 812.898 149.203V155.219ZM817.82 155.219C817.82 155.672 817.453 156.039 817 156.039C816.547 156.039 816.18 155.672 816.18 155.219V149.203C816.18 148.75 816.547 148.383 817 148.383C817.453 148.383 817.82 148.75 817.82 149.203V155.219ZM822.742 155.219C822.742 155.672 822.375 156.039 821.922 156.039C821.469 156.039 821.102 155.672 821.102 155.219V149.203C821.102 148.75 821.469 148.383 821.922 148.383C822.375 148.383 822.742 148.75 822.742 149.203V155.219ZM824.178 146.4C824.071 146.447 823.96 146.469 823.85 146.469C823.534 146.469 823.233 146.285 823.098 145.977L822.195 143.909H823.985L824.601 145.32C824.783 145.736 824.593 146.219 824.178 146.4Z" fill="white"/>
<path d="M796 51.5C796 64.4787 785.479 75 772.5 75C759.521 75 749 64.4787 749 51.5C749 38.5213 759.521 28 772.5 28C785.479 28 796 38.5213 796 51.5Z" fill="#2C2C45"/>
<path d="M765.5 73.5H779.77L772.635 82.3649L765.5 73.5Z" fill="#2C2C45"/>
<path d="M785.813 46.9534H780.004L776.746 39.4923C776.565 39.0771 776.081 38.8874 775.666 39.0688C775.251 39.2501 775.061 39.7337 775.242 40.1489L778.214 46.9535H767.786L770.758 40.1489C770.939 39.7337 770.749 39.2502 770.334 39.0688C769.919 38.8874 769.435 39.077 769.254 39.4923L765.996 46.9534H760.187C759.427 46.9534 758.863 47.6414 759.029 48.3655L762.088 61.689C762.21 62.218 762.691 62.5941 763.246 62.5941H782.754C783.309 62.5941 783.79 62.218 783.912 61.689L786.971 48.3655C787.137 47.6414 786.573 46.9534 785.813 46.9534ZM766.15 49.4693C766.04 49.4693 765.929 49.4472 765.822 49.4005C765.407 49.2192 765.217 48.7356 765.399 48.3204L766.015 46.9094H767.805L766.902 48.977C766.768 49.2854 766.466 49.4693 766.15 49.4693ZM768.898 58.2191C768.898 58.6721 768.531 59.0394 768.078 59.0394C767.625 59.0394 767.258 58.6721 767.258 58.2191V52.2034C767.258 51.7504 767.625 51.3831 768.078 51.3831C768.531 51.3831 768.898 51.7504 768.898 52.2034V58.2191ZM773.82 58.2191C773.82 58.6721 773.453 59.0394 773 59.0394C772.547 59.0394 772.18 58.6721 772.18 58.2191V52.2034C772.18 51.7504 772.547 51.3831 773 51.3831C773.453 51.3831 773.82 51.7504 773.82 52.2034V58.2191ZM778.742 58.2191C778.742 58.6721 778.375 59.0394 777.922 59.0394C777.469 59.0394 777.102 58.6721 777.102 58.2191V52.2034C777.102 51.7504 777.469 51.3831 777.922 51.3831C778.375 51.3831 778.742 51.7504 778.742 52.2034V58.2191ZM780.178 49.4005C780.071 49.4472 779.96 49.4693 779.85 49.4693C779.534 49.4693 779.233 49.2854 779.098 48.977L778.195 46.9094H779.985L780.601 48.3205C780.783 48.7356 780.593 49.2192 780.178 49.4005Z" fill="white"/>
<path d="M758 353.5C758 366.479 747.479 377 734.5 377C721.521 377 711 366.479 711 353.5C711 340.521 721.521 330 734.5 330C747.479 330 758 340.521 758 353.5Z" fill="#2C2C45"/>
<path d="M727.5 375.5H741.77L734.635 384.365L727.5 375.5Z" fill="#2C2C45"/>
<path d="M747.813 348.953H742.004L738.746 341.492C738.565 341.077 738.081 340.887 737.666 341.069C737.251 341.25 737.061 341.734 737.242 342.149L740.214 348.953H729.786L732.758 342.149C732.939 341.734 732.749 341.25 732.334 341.069C731.919 340.887 731.435 341.077 731.254 341.492L727.996 348.953H722.187C721.427 348.953 720.863 349.641 721.029 350.365L724.088 363.689C724.21 364.218 724.691 364.594 725.246 364.594H744.754C745.309 364.594 745.79 364.218 745.912 363.689L748.971 350.365C749.137 349.641 748.573 348.953 747.813 348.953ZM728.15 351.469C728.04 351.469 727.929 351.447 727.822 351.4C727.407 351.219 727.217 350.736 727.399 350.32L728.015 348.909H729.805L728.902 350.977C728.768 351.285 728.466 351.469 728.15 351.469ZM730.898 360.219C730.898 360.672 730.531 361.039 730.078 361.039C729.625 361.039 729.258 360.672 729.258 360.219V354.203C729.258 353.75 729.625 353.383 730.078 353.383C730.531 353.383 730.898 353.75 730.898 354.203V360.219ZM735.82 360.219C735.82 360.672 735.453 361.039 735 361.039C734.547 361.039 734.18 360.672 734.18 360.219V354.203C734.18 353.75 734.547 353.383 735 353.383C735.453 353.383 735.82 353.75 735.82 354.203V360.219ZM740.742 360.219C740.742 360.672 740.375 361.039 739.922 361.039C739.469 361.039 739.102 360.672 739.102 360.219V354.203C739.102 353.75 739.469 353.383 739.922 353.383C740.375 353.383 740.742 353.75 740.742 354.203V360.219ZM742.178 351.4C742.071 351.447 741.96 351.469 741.85 351.469C741.534 351.469 741.233 351.285 741.098 350.977L740.195 348.909H741.985L742.601 350.32C742.783 350.736 742.593 351.219 742.178 351.4Z" fill="white"/>
<path d="M758 353.5C758 366.479 747.479 377 734.5 377C721.521 377 711 366.479 711 353.5C711 340.521 721.521 330 734.5 330C747.479 330 758 340.521 758 353.5Z" fill="#2C2C45"/>
<path d="M727.5 375.5H741.77L734.635 384.365L727.5 375.5Z" fill="#2C2C45"/>
<path d="M747.813 348.953H742.004L738.746 341.492C738.565 341.077 738.081 340.887 737.666 341.069C737.251 341.25 737.061 341.734 737.242 342.149L740.214 348.953H729.786L732.758 342.149C732.939 341.734 732.749 341.25 732.334 341.069C731.919 340.887 731.435 341.077 731.254 341.492L727.996 348.953H722.187C721.427 348.953 720.863 349.641 721.029 350.365L724.088 363.689C724.21 364.218 724.691 364.594 725.246 364.594H744.754C745.309 364.594 745.79 364.218 745.912 363.689L748.971 350.365C749.137 349.641 748.573 348.953 747.813 348.953ZM728.15 351.469C728.04 351.469 727.929 351.447 727.822 351.4C727.407 351.219 727.217 350.736 727.399 350.32L728.015 348.909H729.805L728.902 350.977C728.768 351.285 728.466 351.469 728.15 351.469ZM730.898 360.219C730.898 360.672 730.531 361.039 730.078 361.039C729.625 361.039 729.258 360.672 729.258 360.219V354.203C729.258 353.75 729.625 353.383 730.078 353.383C730.531 353.383 730.898 353.75 730.898 354.203V360.219ZM735.82 360.219C735.82 360.672 735.453 361.039 735 361.039C734.547 361.039 734.18 360.672 734.18 360.219V354.203C734.18 353.75 734.547 353.383 735 353.383C735.453 353.383 735.82 353.75 735.82 354.203V360.219ZM740.742 360.219C740.742 360.672 740.375 361.039 739.922 361.039C739.469 361.039 739.102 360.672 739.102 360.219V354.203C739.102 353.75 739.469 353.383 739.922 353.383C740.375 353.383 740.742 353.75 740.742 354.203V360.219ZM742.178 351.4C742.071 351.447 741.96 351.469 741.85 351.469C741.534 351.469 741.233 351.285 741.098 350.977L740.195 348.909H741.985L742.601 350.32C742.783 350.736 742.593 351.219 742.178 351.4Z" fill="white"/>
<g filter="url(#filter0_d_669_24)">
<path d="M964 233.93C964 257.087 945.196 275.859 922 275.859C898.804 275.859 880 257.087 880 233.93C880 210.773 898.804 192 922 192C945.196 192 964 210.773 964 233.93Z" fill="white"/>
<path d="M909.489 273.183H934.993L922.241 289L909.489 273.183Z" fill="white"/>
</g>
<path fill-rule="evenodd" clip-rule="evenodd" d="M918.587 243.643C917.864 243.617 917.142 243.568 916.43 243.506C914.06 243.3 911.692 242.906 909.388 242.317C904.353 241.027 899.59 238.774 895.86 235.231C895.879 235.601 895.907 235.97 895.944 236.337C899.459 239.796 904.079 241.954 908.858 243.221C911.938 244.037 915.328 244.552 918.587 244.683L918.587 243.643ZM895.923 232.332C899.549 236.469 904.583 238.973 909.905 240.336C912.099 240.898 914.355 241.272 916.612 241.469C917.263 241.525 917.925 241.57 918.587 241.596L918.587 235.875C915.487 235.544 912.305 234.829 909.415 233.848C905.021 232.357 900.917 230.113 897.595 226.946C896.733 228.707 896.142 230.512 895.923 232.332ZM898.62 225.074C901.792 228.247 905.801 230.459 910.085 231.913C912.761 232.821 915.71 233.492 918.587 233.817L918.587 229.575C918.287 229.531 917.99 229.482 917.7 229.432C915.976 229.132 914.263 228.693 912.605 228.137C908.357 226.716 904.415 224.507 901.185 221.451C900.234 222.625 899.367 223.835 898.62 225.074ZM902.52 219.885C905.549 222.779 909.268 224.861 913.267 226.2C914.826 226.721 916.437 227.135 918.057 227.417C918.23 227.447 918.408 227.477 918.587 227.505L918.587 222.435C914.12 221.257 909.736 219.143 906.124 216.243C904.874 217.396 903.656 218.615 902.52 219.885ZM907.677 214.853C910.869 217.355 914.689 219.214 918.587 220.314L918.587 219.217C917.569 218.951 916.551 218.594 915.626 218.22C913.088 217.192 910.698 215.789 908.518 214.136C908.238 214.372 907.957 214.611 907.677 214.853ZM910.157 212.797C912.087 214.217 914.187 215.428 916.408 216.327C917.088 216.602 917.833 216.871 918.587 217.093L918.587 212.75C917.095 212.104 915.226 211.134 913.849 210.023C912.679 210.855 911.431 211.785 910.157 212.797ZM915.616 208.795C916.507 209.428 917.609 210.025 918.587 210.493L918.587 206.846C917.584 207.481 916.592 208.131 915.616 208.795ZM921.907 197.051C921.943 197.031 921.966 197.017 922.001 197C936.463 204.877 955 218.464 955 233.882C955 239.847 953.437 245.548 948.845 249.664C942.886 255.005 933.503 255.978 925.413 256.138L925.413 271.836L918.587 271.836L918.587 256.138C910.497 255.978 901.114 255.005 895.156 249.664C890.564 245.548 889 239.847 889 233.882C889 218.497 907.459 204.935 921.907 197.051ZM918.587 249.383L918.587 246.73C915.15 246.599 911.578 246.06 908.323 245.197C904.094 244.076 900.011 242.297 896.596 239.634C897.184 241.517 898.168 243.248 899.738 244.656C904.069 248.538 912.206 249.254 918.587 249.383ZM925.413 206.846L925.413 249.383C931.795 249.254 939.932 248.538 944.262 244.656C947.355 241.883 948.174 237.855 948.174 233.882C948.174 224.006 936.445 214.355 929.027 209.234C927.843 208.417 926.638 207.621 925.413 206.846Z" fill="#80B154"/>
<defs>
<filter id="filter0_d_669_24" x="850" y="166" width="144" height="157" filterUnits="userSpaceOnUse" color-interpolation-filters="sRGB">
<feFlood flood-opacity="0" result="BackgroundImageFix"/>
<feColorMatrix in="SourceAlpha" type="matrix" values="0 0 0 0 0 0 0 0 0 0 0 0 0 0 0 0 0 0 127 0" result="hardAlpha"/>
<feOffset dy="4"/>
<feGaussianBlur stdDeviation="15"/>
<feComposite in2="hardAlpha" operator="out"/>
<feColorMatrix type="matrix" values="0 0 0 0 0 0 0 0 0 0 0 0 0 0 0 0 0 0 0.25 0"/>
<feBlend mode="normal" in2="BackgroundImageFix" result="effect1_dropShadow_669_24"/>
<feBlend mode="normal" in="SourceGraphic" in2="effect1_dropShadow_669_24" result="shape"/>
</filter>
</defs>
</svg>
