<svg width="435" height="135" viewBox="0 0 435 135" fill="none" xmlns="http://www.w3.org/2000/svg">
<g clip-path="url(#clip0_180_45)">
<path d="M44.8701 126.66L39.5736 119.16H43.0151L48.1159 126.723V119.16H51.23V126.726L56.3308 119.16H59.783L54.4758 126.66L60.0846 134.782H56.503L51.23 126.865V134.782H48.1159V126.865L42.8418 134.782H39.2612L44.8701 126.66Z" fill="#2C2C45"/>
<path d="M69.5801 119.16H72.5873V126.704L72.5466 128.724L72.4364 131.022H72.5017L79.7784 119.16H83.7751V134.782H80.8011V127.28C80.8011 126.274 80.8642 124.786 80.9969 122.814H80.9081L73.5993 134.782H69.5801V119.16Z" fill="#2C2C45"/>
<path d="M133.552 126.952C133.552 129.542 132.905 131.529 131.613 132.918C130.317 134.307 128.462 135 126.048 135C123.634 135 121.779 134.307 120.484 132.918C119.188 131.529 118.544 129.534 118.544 126.934C118.544 124.334 119.192 122.347 120.491 120.976C121.787 119.605 123.648 118.919 126.07 118.919C128.492 118.919 130.347 119.609 131.628 120.99C132.913 122.372 133.552 124.36 133.552 126.952ZM122.048 126.952C122.048 128.699 122.383 130.015 123.049 130.898C123.719 131.78 124.719 132.222 126.048 132.222C128.716 132.222 130.049 130.468 130.049 126.952C130.049 123.434 128.725 121.676 126.07 121.676C124.739 121.676 123.737 122.118 123.06 123.007C122.386 123.893 122.048 125.21 122.048 126.952Z" fill="#2C2C45"/>
<path d="M144.333 119.16H147.34V126.704L147.299 128.724L147.189 131.022H147.255L154.531 119.16H158.528V134.782H155.555V127.281C155.555 126.274 155.617 124.787 155.749 122.814H155.661L148.352 134.782H144.333V119.16ZM156.654 114.084C156.514 115.419 156.01 116.389 155.134 116.998C154.255 117.607 152.992 117.913 151.34 117.913C149.635 117.913 148.377 117.621 147.56 117.034C146.744 116.45 146.287 115.466 146.188 114.084H149.128C149.18 114.821 149.364 115.335 149.684 115.63C150.005 115.926 150.578 116.075 151.403 116.075C152.128 116.075 152.668 115.915 153.026 115.586C153.383 115.262 153.6 114.762 153.677 114.084H156.654Z" fill="#2C2C45"/>
<path d="M203.8 134.782H200.002L194.286 126.865V134.782H190.944V119.16H194.286V126.726L199.939 119.16H203.498L197.749 126.66L203.8 134.782Z" fill="#2C2C45"/>
<path d="M213.295 119.16H218.201C220.439 119.16 222.062 119.473 223.07 120.105C224.083 120.735 224.587 121.741 224.587 123.116C224.587 124.05 224.367 124.815 223.925 125.414C223.483 126.015 222.894 126.372 222.162 126.493V126.602C223.159 126.82 223.88 127.237 224.322 127.838C224.764 128.443 224.984 129.25 224.984 130.253C224.984 131.678 224.466 132.787 223.427 133.585C222.39 134.384 220.976 134.782 219.195 134.782H213.295V119.16ZM216.637 125.351H218.581C219.486 125.351 220.141 125.213 220.55 124.936C220.955 124.655 221.157 124.195 221.157 123.554C221.157 122.952 220.936 122.526 220.494 122.263C220.053 122.004 219.354 121.873 218.396 121.873H216.637V125.351ZM216.637 127.98V132.046H218.817C219.737 132.046 220.417 131.871 220.856 131.524C221.293 131.175 221.514 130.643 221.514 129.921C221.514 128.626 220.58 127.98 218.71 127.98H216.637Z" fill="#2C2C45"/>
<path d="M245.297 134.782L244.156 131.061H238.408L237.266 134.782H233.663L239.228 119.094H243.313L248.9 134.782H245.297ZM243.357 128.283C242.301 124.914 241.705 123.01 241.572 122.566C241.439 122.124 241.344 121.779 241.289 121.519C241.05 122.431 240.369 124.688 239.25 128.283H243.357Z" fill="#2C2C45"/>
<path d="M261.741 126.511H262.842C263.872 126.511 264.641 126.311 265.149 125.906C265.661 125.504 265.914 124.918 265.914 124.148C265.914 123.371 265.701 122.799 265.274 122.427C264.848 122.059 264.178 121.873 263.264 121.873H261.741V126.511ZM269.289 124.032C269.289 125.713 268.76 127 267.7 127.89C266.639 128.779 265.131 129.224 263.177 129.224H261.741V134.782H258.4V119.16H263.434C265.348 119.16 266.801 119.568 267.799 120.381C268.793 121.198 269.289 122.416 269.289 124.032Z" fill="#2C2C45"/>
<path d="M285.862 134.782H282.52V121.916H278.24V119.16H290.143V121.916H285.862V134.782Z" fill="#2C2C45"/>
<path d="M308.983 134.782L307.841 131.061H302.093L300.953 134.782H297.349L302.914 119.094H306.999L312.586 134.782H308.983ZM307.043 128.283C305.987 124.914 305.39 123.01 305.258 122.566C305.126 122.124 305.03 121.779 304.975 121.519C304.736 122.431 304.054 124.688 302.936 128.283H307.043Z" fill="#2C2C45"/>
<path d="M334.558 134.782H331.227V121.916H327.367L327.194 123.349C326.749 126.989 326.354 129.541 326.016 131.007C325.674 132.473 325.18 133.504 324.536 134.103C323.896 134.701 323.006 135 321.868 135C321.265 135 320.734 134.919 320.274 134.762V132.05C320.691 132.192 321.084 132.265 321.448 132.265C321.831 132.265 322.133 132.094 322.354 131.747C322.579 131.4 322.788 130.759 322.987 129.822C323.182 128.885 323.447 127.349 323.77 125.217C324.098 123.08 324.378 121.063 324.606 119.16H334.558V134.782Z" fill="#2C2C45"/>
<path d="M107.746 134.782H104.414V121.916H100.555L100.381 123.349C99.9352 126.989 99.5415 129.541 99.2035 131.007C98.8611 132.473 98.368 133.504 97.7239 134.103C97.0831 134.701 96.1931 135 95.0559 135C94.4515 135 93.9219 134.919 93.4619 134.762V132.05C93.8781 132.192 94.2717 132.265 94.6355 132.265C95.0185 132.265 95.3201 132.094 95.5416 131.747C95.7662 131.4 95.9759 130.759 96.1738 129.822C96.3696 128.885 96.6338 127.349 96.958 125.217C97.2853 123.08 97.5656 121.063 97.7935 119.16H107.746V134.782Z" fill="#2C2C45"/>
<path fill-rule="evenodd" clip-rule="evenodd" d="M40.988 64.043C39.9967 64.0069 39.0054 63.9407 38.0294 63.8556C34.7784 63.5717 31.5295 63.032 28.3695 62.222C21.4623 60.4516 14.9291 57.3574 9.81329 52.4934C9.83947 53.0014 9.87729 53.508 9.9282 54.0124C14.7494 58.7611 21.0863 61.7241 27.6429 63.4636C31.8677 64.5849 36.5173 65.2918 40.988 65.4712V64.043ZM9.89911 48.5129C14.8731 54.1925 21.7787 57.6312 29.0793 59.5033C32.0881 60.2743 35.1827 60.7874 38.2788 61.0576C39.172 61.1354 40.0796 61.1974 40.988 61.2327V53.3776C36.7362 52.9229 32.3703 51.9407 28.4058 50.5939C22.3787 48.5467 16.7495 45.4662 12.193 41.1167C11.0097 43.5358 10.1995 46.0139 9.89911 48.5129ZM13.5988 38.5464C17.9502 42.9038 23.4486 45.9411 29.3251 47.9378C32.9958 49.1845 37.0417 50.1061 40.988 50.5521V44.7269C40.5764 44.6671 40.1683 44.5993 39.7712 44.5302C37.4061 44.1194 35.0569 43.5156 32.7827 42.7532C26.9556 40.8011 21.5482 37.7682 17.1168 33.5729C15.8127 35.1841 14.6236 36.8465 13.5988 38.5464ZM18.9488 31.422C23.1039 35.396 28.2044 38.2546 33.6911 40.0928C35.8286 40.8091 38.0381 41.3776 40.2607 41.7638C40.4985 41.8056 40.7422 41.8467 40.988 41.8856V34.924C34.8598 33.3056 28.8466 30.403 23.8915 26.4211C22.178 28.0049 20.5067 29.6781 18.9488 31.422ZM26.0225 24.5137C30.4015 27.9487 35.6409 30.501 40.988 32.0107V30.5054C39.5916 30.14 38.1952 29.6493 36.9261 29.1355C33.4445 27.7253 30.1659 25.7978 27.1767 23.5286C26.792 23.8522 26.4065 24.1808 26.0225 24.5137ZM29.4248 21.6904C32.0721 23.6396 34.9529 25.302 37.9988 26.5364C38.9319 26.914 39.9538 27.2843 40.988 27.5892V21.6256C38.9407 20.7385 36.3777 19.4069 34.4889 17.8807C32.8845 19.0242 31.1717 20.3004 29.4248 21.6904ZM36.9123 16.1945C38.1348 17.0642 39.6469 17.8843 40.988 18.527V13.519C39.612 14.3909 38.2519 15.283 36.9123 16.1945ZM45.5423 0.069897C45.5918 0.0425147 45.623 0.0230588 45.6703 0C65.5087 10.816 90.9364 29.4706 90.9364 50.6408C90.9364 58.8317 88.7923 66.6587 82.4932 72.3103C74.3199 79.6437 61.449 80.9804 50.3519 81.2002V102.754H40.988V81.2002C29.891 80.9804 17.0193 79.6437 8.84671 72.3103C2.54762 66.6587 0.402832 58.8317 0.402832 50.6408C0.402832 29.516 25.7228 10.8953 45.5423 0.069897ZM40.988 71.9248V68.2822C36.273 68.1021 31.3732 67.3613 26.9091 66.1766C21.1082 64.6375 15.5073 62.1954 10.8228 58.5391C11.6293 61.1246 12.9792 63.5011 15.1327 65.4337C21.0732 70.7639 32.2343 71.7468 40.988 71.9248ZM50.3519 13.519V71.9248C59.1056 71.7468 70.2667 70.7639 76.2072 65.4337C80.4502 61.6268 81.5724 56.0963 81.5724 50.6408C81.5724 37.08 65.4847 23.8291 55.3091 16.7983C53.6851 15.6764 52.0312 14.5825 50.3519 13.519Z" fill="#79BD3D"/>
<path fill-rule="evenodd" clip-rule="evenodd" d="M365.096 42.5832C365.096 26.5155 377.025 13.274 393.569 13.2992C408.311 13.3223 418.987 24.7378 423.288 37.8043C423.769 39.2663 424.138 40.856 424.422 42.5111C424.15 44.2168 423.783 45.8554 423.288 47.3614C418.987 60.4278 408.311 71.8434 393.569 71.8665C377.025 71.8917 365.096 58.6502 365.096 42.5832ZM425.233 64.002V79.5559H434.597C434.597 54.9074 434.597 30.259 434.597 5.61055H425.233V5.93049V21.1637C417.976 11.0532 406.975 4.04183 393.584 4.02165C371.857 3.98851 355.732 21.3864 355.732 42.5832C355.732 63.78 371.857 81.1772 393.584 81.144C406.975 81.1239 417.976 74.1125 425.233 64.002Z" fill="#79BD3D"/>
<path fill-rule="evenodd" clip-rule="evenodd" d="M335.586 42.5832C335.586 26.5155 323.657 13.274 307.114 13.2992C292.373 13.3223 281.696 24.7378 277.395 37.8043C276.914 39.2656 276.545 40.8538 276.261 42.5068C276.534 44.2168 276.9 45.8576 277.395 47.3614C281.696 60.4278 292.373 71.8434 307.114 71.8665C323.657 71.8917 335.586 58.6502 335.586 42.5832ZM275.45 64.002V102.754H266.085C266.085 70.3727 266.085 37.9916 266.085 5.61055H275.45V21.1637C282.707 11.0532 293.707 4.04183 307.1 4.02165C328.826 3.98851 344.951 21.3864 344.951 42.5832C344.951 63.78 328.826 81.1772 307.1 81.144C293.707 81.1239 282.707 74.1125 275.45 64.002Z" fill="#79BD3D"/>
<path fill-rule="evenodd" clip-rule="evenodd" d="M214.919 4.02161C193.513 4.02161 175.999 21.3741 175.999 42.5832C175.999 63.7922 193.513 81.144 214.919 81.144C236.326 81.144 253.839 63.7922 253.839 42.5832C253.839 21.3741 236.326 4.02161 214.919 4.02161ZM214.919 13.2992C231.175 13.2992 244.475 26.4766 244.475 42.5832C244.475 58.689 231.175 71.8664 214.919 71.8664C198.664 71.8664 185.363 58.689 185.363 42.5832C185.363 26.4766 198.664 13.2992 214.919 13.2992Z" fill="#79BD3D"/>
<path fill-rule="evenodd" clip-rule="evenodd" d="M139.52 5.61047C153.099 28.5987 163.602 54.3006 171.737 79.5558H161.898C154.651 57.5216 145.539 35.1856 134.062 14.8412C122.586 35.1856 113.473 57.5216 106.226 79.5558H96.3872C104.523 54.3006 115.025 28.5987 128.604 5.61047H139.52Z" fill="#79BD3D"/>
</g>
<defs>
<clipPath id="clip0_180_45">
<rect width="435" height="135" fill="white"/>
</clipPath>
</defs>
</svg>
