<svg width="397" height="450" viewBox="0 0 397 450" fill="none" xmlns="http://www.w3.org/2000/svg">
<path fill-rule="evenodd" clip-rule="evenodd" d="M177.971 280.47C173.624 280.312 169.277 280.022 164.997 279.65C150.741 278.406 136.494 276.043 122.637 272.496C92.3484 264.742 63.6993 251.191 41.266 229.89C41.3808 232.115 41.5466 234.333 41.7698 236.542C62.9115 257.339 90.6996 270.315 119.451 277.933C137.977 282.843 158.366 285.939 177.971 286.725L177.971 280.47ZM41.6423 212.457C63.4537 237.331 93.7358 252.39 125.75 260.589C138.944 263.966 152.514 266.212 166.091 267.396C170.007 267.737 173.987 268.008 177.971 268.163L177.971 233.762C159.326 231.771 140.181 227.469 122.796 221.571C96.367 212.606 71.682 199.115 51.7013 180.067C46.5123 190.661 42.9595 201.513 41.6423 212.457ZM57.8661 168.81C76.9475 187.893 101.058 201.195 126.828 209.939C142.924 215.399 160.666 219.435 177.971 221.388L177.971 195.877C176.166 195.615 174.376 195.319 172.635 195.016C162.264 193.217 151.962 190.572 141.989 187.234C116.437 178.685 92.7248 165.402 73.2926 147.029C67.5742 154.086 62.3598 161.366 57.8661 168.81ZM81.3263 137.609C99.5466 155.013 121.913 167.532 145.973 175.583C155.346 178.719 165.035 181.209 174.781 182.901C175.824 183.084 176.893 183.264 177.971 183.434L177.971 152.946C151.098 145.859 124.729 133.147 103.001 115.709C95.4866 122.645 88.1578 129.973 81.3263 137.609ZM112.345 107.355C131.548 122.399 154.523 133.576 177.971 140.188L177.971 133.595C171.847 131.995 165.724 129.846 160.159 127.596C144.892 121.421 130.514 112.979 117.406 103.041C115.719 104.458 114.029 105.897 112.345 107.355ZM127.265 94.9911C138.874 103.527 151.506 110.808 164.863 116.214C168.955 117.867 173.436 119.489 177.971 120.824L177.971 94.7071C168.993 90.8224 157.754 84.9906 149.471 78.3067C142.436 83.3149 134.925 88.9037 127.265 94.9911ZM160.098 70.9222C165.459 74.7312 172.09 78.3225 177.971 81.1374L177.971 59.205C171.937 63.0234 165.973 66.9302 160.098 70.9222ZM197.942 0.306099C198.159 0.18618 198.296 0.100975 198.503 -8.67657e-06C285.497 47.3678 397 129.064 397 221.776C397 257.648 387.598 291.926 359.976 316.676C324.135 348.792 267.694 354.646 219.033 355.608L219.032 450L177.971 450L177.971 355.608C129.309 354.646 72.8652 348.792 37.0274 316.676C9.40511 291.925 4.9773e-05 257.648 5.1341e-05 221.776C5.53849e-05 129.263 111.031 47.7149 197.942 0.306099ZM177.971 314.988L177.971 299.035C157.295 298.246 135.809 295.002 116.233 289.814C90.7952 283.074 66.2346 272.379 45.6926 256.367C49.2295 267.689 55.1488 278.097 64.5922 286.561C90.6422 309.904 139.585 314.208 177.971 314.988ZM219.033 59.205L219.033 314.988C257.419 314.208 306.361 309.904 332.411 286.561C351.017 269.889 355.938 245.669 355.938 221.776C355.938 162.388 285.392 104.357 240.771 73.5668C233.649 68.6533 226.397 63.8628 219.033 59.205Z" fill="white" fill-opacity="0.7"/>
</svg>
