<svg width="34" height="34" viewBox="0 0 34 34" fill="none" xmlns="http://www.w3.org/2000/svg">
<path d="M9.265 7.08333C9.35 8.34416 9.5625 9.57666 9.9025 10.7525L8.2025 12.4525C7.62167 10.7525 7.25333 8.95333 7.12583 7.08333H9.265ZM23.2333 24.1117C24.4375 24.4517 25.67 24.6642 26.9167 24.7492V26.86C25.0467 26.7325 23.2475 26.3642 21.5333 25.7975L23.2333 24.1117ZM10.625 4.25H5.66667C4.8875 4.25 4.25 4.8875 4.25 5.66666C4.25 18.9692 15.0308 29.75 28.3333 29.75C29.1125 29.75 29.75 29.1125 29.75 28.3333V23.3892C29.75 22.61 29.1125 21.9725 28.3333 21.9725C26.5767 21.9725 24.8625 21.6892 23.2758 21.165C23.1356 21.1126 22.9863 21.0885 22.8367 21.0942C22.4683 21.0942 22.1142 21.2358 21.8308 21.505L18.7142 24.6217C14.6986 22.568 11.432 19.3014 9.37833 15.2858L12.495 12.1692C12.8917 11.7725 13.005 11.22 12.8492 10.7242C12.3127 9.09201 12.0401 7.38472 12.0417 5.66666C12.0417 4.8875 11.4042 4.25 10.625 4.25Z" fill="#2C2C45"/>
</svg>
