<svg width="84" height="98" viewBox="0 0 84 98" fill="none" xmlns="http://www.w3.org/2000/svg">
<path d="M84 41.9296C84 65.0867 65.196 83.8593 42 83.8593C18.804 83.8593 0 65.0867 0 41.9296C0 18.7725 18.804 0 42 0C65.196 0 84 18.7725 84 41.9296Z" fill="white"/>
<path d="M23.3316 79.5H60.6684C51.4717 84.4329 47.2055 89.0485 42.2409 98C37.3738 89.0159 32.9884 84.381 23.3316 79.5Z" fill="white"/>
<path fill-rule="evenodd" clip-rule="evenodd" d="M39.1042 50.5757C38.491 50.5534 37.8778 50.5125 37.2741 50.4599C35.2632 50.2845 33.2536 49.951 31.2989 49.4504C27.0265 48.3564 22.9853 46.4443 19.8209 43.4386C19.8371 43.7525 19.8605 44.0655 19.892 44.3772C22.8742 47.3117 26.7939 49.1427 30.8495 50.2177C33.4628 50.9106 36.3388 51.3474 39.1042 51.4583L39.1042 50.5757ZM19.874 40.9788C22.9506 44.4886 27.2222 46.6135 31.738 47.7704C33.5991 48.2468 35.5133 48.5639 37.4284 48.7309C37.9808 48.7789 38.5423 48.8172 39.1042 48.8391L39.1042 43.9849C36.4742 43.704 33.7737 43.097 31.3214 42.2648C27.5933 40.9997 24.1113 39.0961 21.2929 36.4083C20.5609 37.9032 20.0598 39.4345 19.874 40.9788ZM22.1625 34.82C24.854 37.5126 28.2551 39.3895 31.89 40.6234C34.1605 41.3938 36.6632 41.9633 39.1042 42.239L39.1042 38.6392C38.8495 38.6023 38.5972 38.5604 38.3515 38.5177C36.8886 38.2638 35.4355 37.8907 34.0287 37.4196C30.4243 36.2133 27.0796 34.339 24.3385 31.7466C23.5319 32.7422 22.7963 33.7695 22.1625 34.82ZM25.4717 30.4174C28.0418 32.8731 31.1968 34.6396 34.5906 35.7756C35.9128 36.2182 37.2795 36.5695 38.6543 36.8082C38.8014 36.834 38.9521 36.8594 39.1042 36.8834L39.1042 32.5815C35.3136 31.5814 31.594 29.7877 28.529 27.327C27.4691 28.3058 26.4353 29.3398 25.4717 30.4174ZM29.8472 26.1484C32.5558 28.2711 35.7967 29.8483 39.1042 30.7812L39.1042 29.851C38.2404 29.6252 37.3767 29.3219 36.5916 29.0045C34.4381 28.133 32.4101 26.9419 30.5611 25.5396C30.3231 25.7396 30.0847 25.9426 29.8472 26.1484ZM31.9517 24.4037C33.5892 25.6082 35.3711 26.6355 37.2552 27.3983C37.8324 27.6316 38.4645 27.8605 39.1042 28.0489L39.1042 24.3636C37.8378 23.8155 36.2524 22.9926 35.0841 22.0495C34.0917 22.7561 33.0323 23.5447 31.9517 24.4037ZM36.5831 21.0075C37.3393 21.5449 38.2746 22.0517 39.1042 22.4489L39.1042 19.3541C38.253 19.8929 37.4118 20.4442 36.5831 21.0075ZM41.9213 11.0432C41.9519 11.0263 41.9712 11.0142 42.0005 11C54.2716 17.6838 70 29.2115 70 42.2937C70 47.3553 68.6738 52.1921 64.7774 55.6845C59.7218 60.2162 51.7604 61.0423 44.8963 61.1781L44.8963 74.4972L39.1042 74.4972L39.1042 61.1781C32.24 61.0423 24.2782 60.2162 19.223 55.6845C15.3267 52.1921 14 47.3553 14 42.2937C14 29.2396 29.6618 17.7328 41.9213 11.0432ZM39.1042 55.4463L39.1042 53.1953C36.1877 53.084 33.1569 52.6263 30.3956 51.8942C26.8074 50.9431 23.3429 49.434 20.4453 47.1746C20.9442 48.7723 21.7792 50.2408 23.1112 51.4351C26.7858 54.7289 33.6895 55.3363 39.1042 55.4463ZM44.8963 19.3541L44.8963 55.4463C50.3109 55.3363 57.2147 54.7289 60.8892 51.4351C63.5138 49.0826 64.2079 45.665 64.2079 42.2937C64.2079 33.9138 54.2567 25.7253 47.9626 21.3806C46.958 20.6873 45.935 20.0114 44.8963 19.3541Z" fill="#80B154"/>
</svg>
