<svg width="48" height="55" viewBox="0 0 48 55" fill="none" xmlns="http://www.w3.org/2000/svg">
<path fill-rule="evenodd" clip-rule="evenodd" d="M21.3655 33.6819C20.8436 33.6629 20.3218 33.628 19.808 33.5833C18.0965 33.434 16.3862 33.1502 14.7226 32.7242C11.0865 31.793 7.64713 30.1657 4.95399 27.6076C4.96778 27.8748 4.98768 28.1412 5.01448 28.4065C7.55255 30.904 10.8885 32.4623 14.3401 33.3772C16.5643 33.9669 19.012 34.3386 21.3655 34.433L21.3655 33.6819ZM4.99917 25.5142C7.61765 28.5013 11.253 30.3097 15.0963 31.2943C16.6803 31.6998 18.3094 31.9696 19.9393 32.1118C20.4095 32.1527 20.8873 32.1853 21.3655 32.2039L21.3655 28.0726C19.1272 27.8335 16.8288 27.317 14.7418 26.6087C11.5689 25.532 8.60546 23.9119 6.20676 21.6244C5.58382 22.8966 5.1573 24.1999 4.99917 25.5142ZM6.94685 20.2726C9.23759 22.5642 12.1321 24.1616 15.2257 25.2118C17.1581 25.8674 19.288 26.3521 21.3655 26.5867L21.3655 23.523C21.1488 23.4916 20.934 23.456 20.725 23.4196C19.4799 23.2036 18.2432 22.886 17.0459 22.485C13.9783 21.4584 11.1317 19.8633 8.79881 17.6569C8.11232 18.5043 7.48632 19.3786 6.94685 20.2726ZM9.76327 16.5256C11.9506 18.6157 14.6357 20.1191 17.5241 21.0858C18.6494 21.4625 19.8126 21.7616 20.9826 21.9647C21.1078 21.9867 21.2361 22.0083 21.3655 22.0287L21.3655 18.3674C18.1394 17.5163 14.9738 15.9898 12.3653 13.8955C11.4632 14.7285 10.5834 15.6085 9.76327 16.5256ZM13.4871 12.8924C15.7924 14.699 18.5506 16.0413 21.3655 16.8352L21.3655 16.0436C20.6304 15.8514 19.8953 15.5933 19.2272 15.3231C17.3943 14.5815 15.6683 13.5677 14.0947 12.3743C13.8922 12.5445 13.6893 12.7173 13.4871 12.8924ZM15.2782 11.4076C16.6719 12.4327 18.1884 13.307 19.7919 13.9562C20.2831 14.1547 20.8211 14.3495 21.3655 14.5098L21.3655 11.3734C20.2877 10.9069 18.9385 10.2066 17.9441 9.40391C17.0995 10.0053 16.1979 10.6765 15.2782 11.4076ZM19.2199 8.5171C19.8635 8.97453 20.6595 9.4058 21.3655 9.74385L21.3655 7.10997C20.6411 7.56853 19.9251 8.0377 19.2199 8.5171ZM23.7631 0.0367596C23.7891 0.0223585 23.8056 0.0121262 23.8305 -1.04163e-06C34.2741 5.68843 47.6602 15.4994 47.6602 26.6333C47.6602 30.9411 46.5314 35.0575 43.2154 38.0299C38.9126 41.8867 32.1369 42.5897 26.295 42.7053L26.295 54.0408L21.3655 54.0408L21.3655 42.7053C15.5236 42.5897 8.7475 41.8867 4.44514 38.0299C1.12907 35.0575 -1.66113e-05 30.9411 -1.6423e-05 26.6333C-1.59373e-05 15.5232 13.3294 5.73011 23.7631 0.0367596ZM21.3655 37.8271L21.3655 35.9114C18.8833 35.8166 16.3039 35.427 13.9538 34.804C10.9 33.9945 7.9515 32.7102 5.48541 30.7872C5.91002 32.147 6.62064 33.3969 7.75433 34.4133C10.8816 37.2166 16.7572 37.7335 21.3655 37.8271ZM26.295 7.10997L26.295 37.8271C30.9033 37.7335 36.7789 37.2166 39.9062 34.4133C42.1399 32.4112 42.7307 29.5025 42.7307 26.6333C42.7307 19.5013 34.2615 12.5324 28.9047 8.83469C28.0497 8.24462 27.1791 7.66933 26.295 7.10997Z" fill="#79BD3D" fill-opacity="0.5"/>
</svg>
