<svg width="30" height="30" viewBox="0 0 30 30" fill="none" xmlns="http://www.w3.org/2000/svg">
<g clip-path="url(#clip0_415_59)">
<path d="M16.9917 23.05L25 15L16.9917 6.95005C16.9193 6.85507 16.8275 6.77674 16.7222 6.72036C16.617 6.66399 16.5009 6.63088 16.3817 6.62327C16.2626 6.61567 16.1432 6.63376 16.0317 6.67631C15.9201 6.71885 15.819 6.78487 15.7352 6.86988C15.6514 6.9549 15.5869 7.05693 15.5459 7.16907C15.505 7.28121 15.4886 7.40083 15.4979 7.51985C15.5072 7.63887 15.5419 7.7545 15.5998 7.85891C15.6577 7.96333 15.7373 8.05409 15.8333 8.12505L21.825 14.1667L5.88333 14.1667C5.66232 14.1667 5.45036 14.2545 5.29408 14.4108C5.1378 14.5671 5.05 14.779 5.05 15C5.05 15.2211 5.1378 15.433 5.29408 15.5893C5.45036 15.7456 5.66232 15.8334 5.88333 15.8334L21.825 15.8334L15.8333 21.875C15.6775 22.032 15.5904 22.2444 15.5912 22.4655C15.592 22.6866 15.6806 22.8984 15.8375 23.0542C15.9944 23.21 16.2068 23.2971 16.4279 23.2963C16.6491 23.2956 16.8609 23.207 17.0167 23.05L16.9917 23.05Z" fill="#7BAE4D"/>
</g>
<defs>
<clipPath id="clip0_415_59">
<rect width="30" height="30" fill="white" transform="translate(30 1.31134e-06) rotate(90)"/>
</clipPath>
</defs>
</svg>
