<svg width="55" height="55" viewBox="0 0 55 55" fill="none" xmlns="http://www.w3.org/2000/svg">
<path d="M42.487 20.625L20.3495 7.92922C19.1516 7.2375 17.792 6.87514 16.4087 6.87894C15.0255 6.88274 13.6679 7.25256 12.4738 7.95085C11.2797 8.64914 10.2917 9.65101 9.61018 10.8547C8.92862 12.0584 8.57777 13.421 8.59327 14.8042V40.2875C8.59327 42.3662 9.419 44.3597 10.8888 45.8295C12.3586 47.2993 14.3521 48.125 16.4308 48.125C17.8068 48.1227 19.158 47.7592 20.3495 47.0709L42.487 34.375C43.6765 33.6866 44.6641 32.6975 45.3506 31.5069C46.0372 30.3163 46.3986 28.9661 46.3986 27.5917C46.3986 26.2173 46.0372 24.8671 45.3506 23.6765C44.6641 22.486 43.6765 21.4968 42.487 20.8084V20.625ZM40.1953 30.2271L18.0578 43.1063C17.5617 43.3875 17.0011 43.5353 16.4308 43.5353C15.8604 43.5353 15.2999 43.3875 14.8037 43.1063C14.3089 42.8206 13.8981 42.4097 13.6124 41.9149C13.3268 41.4201 13.1765 40.8589 13.1766 40.2875V14.7125C13.1765 14.1412 13.3268 13.58 13.6124 13.0851C13.8981 12.5903 14.3089 12.1795 14.8037 11.8938C15.3015 11.616 15.8607 11.4663 16.4308 11.4584C17.0003 11.4701 17.5586 11.6195 18.0578 11.8938L40.1953 24.6813C40.6903 24.9668 41.1013 25.3777 41.3871 25.8725C41.6729 26.3673 41.8234 26.9286 41.8234 27.5C41.8234 28.0715 41.6729 28.6328 41.3871 29.1276C41.1013 29.6224 40.6903 30.0333 40.1953 30.3188V30.2271Z" fill="white"/>
</svg>
