<svg width="162" height="46" viewBox="0 0 162 46" fill="none" xmlns="http://www.w3.org/2000/svg">
<path d="M47.6616 7.26699V12.8481H59.614V18.0341H47.6616V24.0103H62.6268L63.4171 29.5914H41.6854V1.6365H63.4171L62.6268 7.2176L47.6616 7.26699ZM121.302 12.6505H108.905V1.6365H102.929V29.5914H108.905V18.2316H121.302V29.5914H127.279V1.6365H121.302V12.6505ZM83.6177 24.7017H80.9506C77.1476 24.7017 73.8878 22.2816 73.8878 15.6139C73.8878 8.94626 77.1476 6.52614 80.9506 6.52614H83.6177C87.4207 6.52614 89.989 9.39077 90.4829 13.3914L96.7555 11.4158C95.422 3.95784 89.1 0.846259 82.2842 0.846259C73.9372 0.846259 67.1213 7.46455 67.1213 15.6139C67.1213 23.7633 73.8878 30.3816 82.2842 30.3816C89.1 30.3816 95.4713 26.8255 97.1506 19.6146L90.6311 17.8859C89.7915 21.7877 87.4207 24.7017 83.6177 24.7017ZM162 29.5914H155.826L154.246 23.4176H141.651L140.071 29.5914H133.897C133.897 29.5914 138.836 10.7737 140.614 4.2048C141.009 2.77248 142.639 1.6365 147.973 1.6365C153.357 1.6365 154.937 2.77248 155.332 4.2048C157.012 10.7737 162 29.5914 162 29.5914ZM152.813 17.8365L149.998 7.26699H145.8L142.985 17.8365H152.813ZM34.2274 9.44016C34.2274 12.0578 33.6348 14.1322 32.4988 15.6139C33.6348 17.0956 34.2274 19.17 34.2274 21.7877C34.2274 31.8139 23.5591 31.2213 22.8677 31.2213C17.7311 31.2213 14.6689 29.1963 13.039 27.9121C12.7921 27.7146 0 15.6139 0 15.6139C0 15.6139 12.7921 3.51333 13.039 3.31577C14.6689 2.03163 17.7311 0.00662509 22.8677 0.00662509C23.5098 0.00662509 34.2274 -0.586057 34.2274 9.44016ZM21.5835 18.281V12.9469C24.7445 13.095 27.1646 12.8975 27.7573 12.5517C28.4488 12.1566 28.597 10.5761 28.597 9.44016C28.597 6.82248 27.4116 5.63711 26.0287 5.63711H21.2872C18.0768 5.63711 15.8543 8.15602 15.5085 8.50175C6.76646 16.8487 13.9774 9.93406 8.0506 15.6139C13.9774 21.2938 6.81585 14.4286 15.5085 22.7261C15.8543 23.0225 18.0768 25.5908 21.2872 25.5908H26.0287C27.4116 25.5908 28.597 24.4054 28.597 21.7877C28.597 20.6517 28.4488 19.0713 27.7573 18.6761C27.1646 18.3304 24.6951 18.1328 21.5835 18.281Z" fill="#5D5F76"/>
<path d="M17.8559 43.2715H19.0359V45.9325H17.9181V44.2996H11.1178V45.9325H10V43.2715H10.8694C11.0557 43.1505 11.242 42.9691 11.3663 42.7272C11.7078 42.1526 11.8631 41.3362 11.8631 40.2778V35.8025H17.8559V43.2715ZM16.7381 36.8306H13.012V40.2778C13.012 41.2455 12.8878 42.0317 12.6083 42.6667C12.5151 42.9086 12.3599 43.1203 12.2046 43.2715H16.7692L16.7381 36.8306ZM21.8305 44.2996H27.9476V43.2715H22.9483V40.55H26.985V39.5218H22.9483V36.8608H27.9476V35.8327H21.8305V44.2996ZM38.1013 41.8805C38.1013 42.6062 37.8529 43.1808 37.325 43.6343C36.7972 44.0879 36.0519 44.2996 35.1204 44.2996H30.9906V35.8025H35.1515C35.9277 35.8025 36.5177 36.0141 37.0145 36.4375C37.4803 36.8608 37.7287 37.3749 37.7287 38.0099C37.7287 38.6147 37.5113 39.0985 37.1077 39.4614C36.9214 39.6126 36.704 39.7335 36.4867 39.8242V39.8847C36.7661 39.9452 37.0456 40.0661 37.294 40.2173C37.8529 40.5802 38.1013 41.1245 38.1013 41.8805ZM32.1395 39.3707H35.1204C35.5862 39.3707 35.9588 39.2497 36.2072 39.0078C36.4867 38.7659 36.6109 38.4635 36.6109 38.1006C36.6109 37.7377 36.4867 37.4354 36.2072 37.1934C35.9277 36.9515 35.5862 36.8306 35.1204 36.8306H32.1395V39.3707ZM36.9835 41.8805C36.9835 41.4269 36.8282 41.0943 36.5177 40.8221C36.2072 40.55 35.7414 40.429 35.1204 40.429H32.1395V43.2715H35.1204C35.7104 43.2715 36.1761 43.1505 36.5177 42.8784C36.8282 42.6062 36.9835 42.2736 36.9835 41.8805ZM41.2996 44.2996H47.4167V43.2715H42.4174V40.55H46.4541V39.5218H42.4174V36.8608H47.4167V35.8327H41.2996V44.2996ZM51.3912 40.4593C51.3912 41.5781 51.267 42.3341 51.0497 42.7574C50.8323 43.1808 50.4907 43.3924 50.025 43.3924C49.8697 43.3924 49.7455 43.3622 49.6213 43.332C49.5903 43.332 49.5282 43.3017 49.466 43.2715V44.2996C49.5592 44.3298 49.6213 44.3601 49.6834 44.3601C49.8387 44.3903 50.025 44.4206 50.2113 44.4206C50.9565 44.4206 51.5154 44.1182 51.9191 43.5134C52.3228 42.9086 52.5091 41.9107 52.5091 40.4593V36.8306H56.3594V44.2996H57.4773V35.8025H51.3602V40.4593H51.3912ZM68.4073 36.8306C69.2767 37.6773 69.7114 38.7659 69.7114 40.0661C69.7114 41.3664 69.2767 42.455 68.4073 43.3017C67.5378 44.1484 66.451 44.5717 65.1469 44.5717C63.8427 44.5717 62.756 44.1484 61.8865 43.3017C61.0171 42.455 60.5824 41.3967 60.5824 40.0661C60.5824 38.7659 61.0171 37.6773 61.8865 36.8306C62.756 35.9839 63.8427 35.5605 65.1469 35.5605C66.4821 35.5605 67.5689 35.9839 68.4073 36.8306ZM68.5936 40.0359C68.5936 39.0078 68.2831 38.1611 67.631 37.5261C66.9789 36.8911 66.1716 36.5584 65.1779 36.5584C64.1843 36.5584 63.3459 36.8911 62.7249 37.5261C62.0728 38.1611 61.7623 39.0078 61.7623 40.0359C61.7623 41.064 62.0728 41.9107 62.7249 42.5457C63.377 43.1808 64.1843 43.5134 65.1779 43.5134C66.1716 43.5134 67.01 43.1808 67.631 42.5457C68.252 41.9107 68.5936 41.064 68.5936 40.0359ZM72.8165 44.2996H73.9344V36.8306H78.6231V44.2996H79.741V35.8025H72.8165V44.2996ZM83.2808 44.2996H89.3979V43.2715H84.3986V40.55H88.4353V39.5218H84.3986V36.8608H89.3979V35.8327H83.2808V44.2996ZM98.4959 36.5887C99.0858 37.1027 99.3963 37.768 99.3963 38.5844C99.3963 39.4009 99.0858 40.0661 98.4959 40.5802C97.9059 41.0943 97.1296 41.3664 96.136 41.3664H93.5898V44.2694H92.4719V35.8025H96.136C97.1296 35.8025 97.9059 36.0444 98.4959 36.5887ZM98.2475 38.5844C98.2475 38.0401 98.0611 37.6168 97.6885 37.3144C97.3159 36.9818 96.788 36.8306 96.136 36.8306H93.5898V40.3383H96.136C96.8191 40.3383 97.3159 40.1871 97.6885 39.8545C98.0611 39.5521 98.2475 39.1287 98.2475 38.5844Z" fill="#5D5F76"/>
</svg>
